Namdhinggo-Regular.ufo
<glyph name="parenleft" format="2">
  <advance width="574"/>
  <unicode hex="0028"/>
  <outline>
    <contour>
      <point x="535" y="-316" type="line"/>
      <point x="336" y="-75"/>
      <point x="255" y="240"/>
      <point x="255" y="561" type="curve" smooth="yes"/>
      <point x="255" y="841"/>
      <point x="331" y="1197"/>
      <point x="535" y="1373" type="curve"/>
      <point x="507" y="1413" type="line"/>
      <point x="227" y="1265"/>
      <point x="106" y="865"/>
      <point x="106" y="534" type="curve" smooth="yes"/>
      <point x="106" y="174"/>
      <point x="224" y="-148"/>
      <point x="507" y="-357" type="curve"/>
    </contour>
  </outline>
</glyph>
<glyph name="at" format="2">
  <advance width="1588"/>
  <unicode hex="0040"/>
  <outline>
    <contour>
      <point x="1517" y="525" type="curve"/>
      <point x="1517" y="1015"/>
      <point x="1262" y="1269"/>
      <point x="881" y="1269" type="curve" smooth="yes"/>
      <point x="434" y="1269"/>
      <point x="71" y="876"/>
      <point x="71" y="440" type="curve" smooth="yes"/>
      <point x="71" y="-54"/>
      <point x="381" y="-364"/>
      <point x="821" y="-364" type="curve" smooth="yes"/>
      <point x="1099" y="-364"/>
      <point x="1298" y="-231"/>
      <point x="1388" y="-133" type="curve"/>
      <point x="1358" y="-74" type="line"/>
      <point x="1283" y="-138"/>
      <point x="1085" y="-237"/>
      <point x="867" y="-237" type="curve" smooth="yes"/>
      <point x="526" y="-237"/>
      <point x="231" y="33"/>
      <point x="231" y="496" type="curve" smooth="yes"/>
      <point x="231" y="837"/>
      <point x="462" y="1142"/>
      <point x="844" y="1142" type="curve" smooth="yes"/>
      <point x="1163" y="1142"/>
      <point x="1386" y="911"/>
      <point x="1386" y="484" type="curve" smooth="yes"/>
      <point x="1386" y="272"/>
      <point x="1277" y="116"/>
      <point x="1214" y="116" type="curve" smooth="yes"/>
      <point x="1156" y="116"/>
      <point x="1123" y="166"/>
      <point x="1123" y="270" type="curve" smooth="yes"/>
      <point x="1123" y="678" type="line" smooth="yes"/>
      <point x="1123" y="783"/>
      <point x="1151" y="880"/>
      <point x="1151" y="880" type="curve"/>
      <point x="1122" y="908" type="line"/>
      <point x="1081" y="869"/>
      <point x="1045" y="843"/>
      <point x="1003" y="821" type="curve"/>
      <point x="938" y="895"/>
      <point x="903" y="908"/>
      <point x="846" y="908" type="curve" smooth="yes"/>
      <point x="599" y="908"/>
      <point x="442" y="641"/>
      <point x="442" y="418" type="curve" smooth="yes"/>
      <point x="442" y="131"/>
      <point x="590" y="-28"/>
      <point x="718" y="-28" type="curve" smooth="yes"/>
      <point x="817" y="-28"/>
      <point x="863" y="8"/>
      <point x="965" y="146" type="curve"/>
      <point x="984" y="18"/>
      <point x="1036" y="-28"/>
      <point x="1101" y="-28" type="curve" smooth="yes"/>
      <point x="1277" y="-28"/>
      <point x="1517" y="200"/>
    </contour>
    <contour>
      <point x="960" y="692" type="curve"/>
      <point x="960" y="244" type="line"/>
      <point x="872" y="137"/>
      <point x="841" y="110"/>
      <point x="792" y="110" type="curve" smooth="yes"/>
      <point x="709" y="110"/>
      <point x="605" y="233"/>
      <point x="605" y="447" type="curve" smooth="yes"/>
      <point x="605" y="684"/>
      <point x="691" y="798"/>
      <point x="821" y="798" type="curve" smooth="yes"/>
      <point x="892" y="798"/>
      <point x="927" y="758"/>
    </contour>
  </outline>
</glyph>
<glyph name="B" format="2">
  <advance width="1102"/>
  <unicode hex="0042"/>
  <anchor x="518" y="-97" name="L"/>
  <anchor x="518" y="1323" name="U"/>
  <outline>
    <contour>
      <point x="999" y="344" type="curve"/>
      <point x="999" y="523"/>
      <point x="872" y="667"/>
      <point x="702" y="698" type="curve"/>
      <point x="821" y="742"/>
      <point x="893" y="847"/>
      <point x="893" y="985" type="curve" smooth="yes"/>
      <point x="893" y="1148"/>
      <point x="729" y="1246"/>
      <point x="463" y="1246" type="curve" smooth="yes"/>
      <point x="321" y="1246"/>
      <point x="139" y="1216"/>
      <point x="36" y="1188" type="curve"/>
      <point x="46" y="1122" type="line"/>
      <point x="154" y="1143"/>
      <point x="308" y="1159"/>
      <point x="408" y="1159" type="curve" smooth="yes"/>
      <point x="647" y="1159"/>
      <point x="720" y="1066"/>
      <point x="720" y="938" type="curve" smooth="yes"/>
      <point x="720" y="827"/>
      <point x="667" y="704"/>
      <point x="387" y="704" type="curve" smooth="yes"/>
      <point x="297" y="704" type="line"/>
      <point x="307" y="603" type="line"/>
      <point x="364" y="614"/>
      <point x="424" y="625"/>
      <point x="508" y="625" type="curve" smooth="yes"/>
      <point x="730" y="625"/>
      <point x="817" y="457"/>
      <point x="817" y="315" type="curve" smooth="yes"/>
      <point x="817" y="170"/>
      <point x="706" y="73"/>
      <point x="522" y="73" type="curve" smooth="yes"/>
      <point x="465" y="73"/>
      <point x="388" y="79"/>
      <point x="349" y="100" type="curve"/>
      <point x="117" y="0" type="line"/>
      <point x="242" y="-6"/>
      <point x="433" y="-14"/>
      <point x="547" y="-14" type="curve"/>
      <point x="818" y="-14"/>
      <point x="999" y="125"/>
    </contour>
    <contour>
      <point x="46" y="0" type="line"/>
      <point x="491" y="0" type="line"/>
      <point x="491" y="47" type="line"/>
      <point x="398" y="65"/>
      <point x="358" y="91"/>
      <point x="358" y="106" type="curve" smooth="yes"/>
      <point x="358" y="1189" type="line"/>
      <point x="182" y="1169" type="line"/>
      <point x="182" y="108" type="line" smooth="yes"/>
      <point x="182" y="91"/>
      <point x="132" y="67"/>
      <point x="46" y="49" type="curve"/>
    </contour>
  </outline>
</glyph>
<glyph name="G" format="2">
  <advance width="1149"/>
  <unicode hex="0047"/>
  <anchor x="596" y="0" name="H"/>
  <anchor x="615" y="-97" name="L"/>
  <anchor x="615" y="1323" name="U"/>
  <outline>
    <contour>
      <point x="1105" y="544" type="curve"/>
      <point x="1105" y="593" type="line"/>
      <point x="655" y="593" type="line"/>
      <point x="655" y="544" type="line"/>
      <point x="807" y="519"/>
      <point x="840" y="493"/>
      <point x="840" y="465" type="curve" smooth="yes"/>
      <point x="840" y="95" type="line" smooth="yes"/>
      <point x="840" y="77"/>
      <point x="1007" y="153"/>
      <point x="1007" y="153" type="curve"/>
      <point x="1007" y="465" type="line" smooth="yes"/>
      <point x="1007" y="495"/>
      <point x="1032" y="526"/>
    </contour>
    <contour>
      <point x="1008" y="1148" type="curve"/>
      <point x="926" y="1210"/>
      <point x="792" y="1246"/>
      <point x="708" y="1246" type="curve" smooth="yes"/>
      <point x="350" y="1246"/>
      <point x="63" y="991"/>
      <point x="63" y="562" type="curve" smooth="yes"/>
      <point x="63" y="164"/>
      <point x="332" y="-29"/>
      <point x="594" y="-29" type="curve" smooth="yes"/>
      <point x="710" y="-29"/>
      <point x="817" y="-4"/>
      <point x="1007" y="153" type="curve"/>
      <point x="999" y="162"/>
      <point x="929" y="191"/>
      <point x="913" y="200" type="curve"/>
      <point x="847" y="136"/>
      <point x="753" y="97"/>
      <point x="624" y="97" type="curve" smooth="yes"/>
      <point x="434" y="97"/>
      <point x="236" y="261"/>
      <point x="236" y="615" type="curve" smooth="yes"/>
      <point x="236" y="1017"/>
      <point x="483" y="1136"/>
      <point x="579" y="1136" type="curve" smooth="yes"/>
      <point x="700" y="1136"/>
      <point x="790" y="1112"/>
      <point x="874" y="1019" type="curve"/>
      <point x="913" y="1011" type="line"/>
      <point x="946" y="1041"/>
      <point x="1027" y="1134"/>
    </contour>
  </outline>
</glyph>
<glyph name="H" format="2">
  <advance width="1294"/>
  <unicode hex="0048"/>
  <anchor x="267" y="0" name="H"/>
  <anchor x="638" y="-97" name="L"/>
  <anchor x="638" y="1323" name="U"/>
  <outline>
    <contour>
      <point x="781" y="0" type="line"/>
      <point x="1230" y="0" type="line"/>
      <point x="1230" y="49" type="line"/>
      <point x="1138" y="67"/>
      <point x="1093" y="93"/>
      <point x="1093" y="108" type="curve" smooth="yes"/>
      <point x="1093" y="1108" type="line" smooth="yes"/>
      <point x="1093" y="1126"/>
      <point x="1144" y="1150"/>
      <point x="1230" y="1168" type="curve"/>
      <point x="1230" y="1217" type="line"/>
      <point x="781" y="1217" type="line"/>
      <point x="781" y="1168" type="line"/>
      <point x="873" y="1150"/>
      <point x="918" y="1123"/>
      <point x="918" y="1108" type="curve" smooth="yes"/>
      <point x="918" y="108" type="line" smooth="yes"/>
      <point x="918" y="91"/>
      <point x="867" y="67"/>
      <point x="781" y="49" type="curve"/>
    </contour>
    <contour>
      <point x="331" y="590" type="line"/>
      <point x="937" y="590" type="line"/>
      <point x="937" y="685" type="line"/>
      <point x="331" y="685" type="line"/>
    </contour>
    <contour>
      <point x="46" y="0" type="line"/>
      <point x="495" y="0" type="line"/>
      <point x="495" y="49" type="line"/>
      <point x="402" y="67"/>
      <point x="358" y="93"/>
      <point x="358" y="108" type="curve" smooth="yes"/>
      <point x="358" y="1108" type="line" smooth="yes"/>
      <point x="358" y="1126"/>
      <point x="409" y="1150"/>
      <point x="495" y="1168" type="curve"/>
      <point x="495" y="1217" type="line"/>
      <point x="46" y="1217" type="line"/>
      <point x="46" y="1168" type="line"/>
      <point x="138" y="1150"/>
      <point x="182" y="1123"/>
      <point x="182" y="1108" type="curve" smooth="yes"/>
      <point x="182" y="108" type="line" smooth="yes"/>
      <point x="182" y="91"/>
      <point x="132" y="67"/>
      <point x="46" y="49" type="curve"/>
    </contour>
  </outline>
</glyph>
<glyph name="I" format="2">
  <advance width="597"/>
  <unicode hex="0049"/>
  <anchor x="289" y="0" name="H"/>
  <anchor x="289" y="-97" name="L"/>
  <anchor x="339" y="0" name="O"/>
  <anchor x="560" y="1063" name="R"/>
  <anchor x="289" y="1323" name="U"/>
  <outline>
    <contour>
      <point x="65" y="0" type="line"/>
      <point x="514" y="0" type="line"/>
      <point x="514" y="49" type="line"/>
      <point x="422" y="67"/>
      <point x="377" y="93"/>
      <point x="377" y="108" type="curve" smooth="yes"/>
      <point x="377" y="1108" type="line" smooth="yes"/>
      <point x="377" y="1126"/>
      <point x="428" y="1150"/>
      <point x="514" y="1168" type="curve"/>
      <point x="514" y="1217" type="line"/>
      <point x="65" y="1217" type="line"/>
      <point x="65" y="1168" type="line"/>
      <point x="157" y="1150"/>
      <point x="202" y="1123"/>
      <point x="202" y="1108" type="curve" smooth="yes"/>
      <point x="202" y="108" type="line" smooth="yes"/>
      <point x="202" y="91"/>
      <point x="151" y="67"/>
      <point x="65" y="49" type="curve"/>
    </contour>
  </outline>
</glyph>
<glyph name="L" format="2">
  <advance width="948"/>
  <unicode hex="004C"/>
  <anchor x="483" y="0" name="H"/>
  <anchor x="483" y="-97" name="L"/>
  <anchor x="733" y="869" name="R"/>
  <anchor x="454" y="1323" name="U"/>
  <outline>
    <contour>
      <point x="921" y="251" type="curve"/>
      <point x="872" y="270" type="line"/>
      <point x="817" y="120"/>
      <point x="782" y="95"/>
      <point x="665" y="95" type="curve" smooth="yes"/>
      <point x="536" y="95" type="line" smooth="yes"/>
      <point x="396" y="95"/>
      <point x="358" y="121"/>
      <point x="358" y="166" type="curve" smooth="yes"/>
      <point x="358" y="1108" type="line" smooth="yes"/>
      <point x="358" y="1126"/>
      <point x="409" y="1150"/>
      <point x="495" y="1168" type="curve"/>
      <point x="495" y="1217" type="line"/>
      <point x="46" y="1217" type="line"/>
      <point x="46" y="1168" type="line"/>
      <point x="138" y="1150"/>
      <point x="182" y="1123"/>
      <point x="182" y="1108" type="curve" smooth="yes"/>
      <point x="182" y="108" type="line" smooth="yes"/>
      <point x="182" y="91"/>
      <point x="132" y="67"/>
      <point x="46" y="49" type="curve"/>
      <point x="46" y="0" type="line"/>
      <point x="881" y="0" type="line"/>
      <point x="891" y="38"/>
      <point x="911" y="140"/>
    </contour>
  </outline>
</glyph>
<glyph name="R" format="2">
  <advance width="1120"/>
  <unicode hex="0052"/>
  <anchor x="271" y="0" name="H"/>
  <anchor x="506" y="-97" name="L"/>
  <anchor x="506" y="1323" name="U"/>
  <outline>
    <contour>
      <point x="912" y="953" type="curve"/>
      <point x="912" y="1120"/>
      <point x="772" y="1246"/>
      <point x="463" y="1246" type="curve" smooth="yes"/>
      <point x="291" y="1246"/>
      <point x="159" y="1218"/>
      <point x="36" y="1188" type="curve"/>
      <point x="46" y="1121" type="line"/>
      <point x="177" y="1141"/>
      <point x="314" y="1159"/>
      <point x="426" y="1159" type="curve" smooth="yes"/>
      <point x="651" y="1159"/>
      <point x="739" y="1059"/>
      <point x="739" y="923" type="curve" smooth="yes"/>
      <point x="739" y="757"/>
      <point x="636" y="665"/>
      <point x="443" y="665" type="curve" smooth="yes"/>
      <point x="411" y="665"/>
      <point x="386" y="667"/>
      <point x="341" y="674" type="curve"/>
      <point x="347" y="589" type="line"/>
      <point x="386" y="580"/>
      <point x="424" y="576"/>
      <point x="459" y="576" type="curve" smooth="yes"/>
      <point x="710" y="576"/>
      <point x="912" y="706"/>
    </contour>
    <contour>
      <point x="1114" y="40" type="curve"/>
      <point x="1103" y="89" type="line"/>
      <point x="1017" y="81"/>
      <point x="975" y="90"/>
      <point x="936" y="146" type="curve" smooth="yes"/>
      <point x="610" y="655" type="line"/>
      <point x="499" y="591" type="line"/>
      <point x="792" y="40" type="line" smooth="yes"/>
      <point x="809" y="11"/>
      <point x="849" y="-14"/>
      <point x="885" y="-14" type="curve" smooth="yes"/>
      <point x="935" y="-14"/>
      <point x="1030" y="12"/>
    </contour>
    <contour>
      <point x="46" y="0" type="line"/>
      <point x="495" y="0" type="line"/>
      <point x="495" y="49" type="line"/>
      <point x="402" y="67"/>
      <point x="358" y="93"/>
      <point x="358" y="108" type="curve" smooth="yes"/>
      <point x="358" y="1174" type="line"/>
      <point x="182" y="1174" type="line"/>
      <point x="182" y="108" type="line" smooth="yes"/>
      <point x="182" y="91"/>
      <point x="132" y="67"/>
      <point x="46" y="49" type="curve"/>
    </contour>
  </outline>
</glyph>
<glyph name="X" format="2">
  <advance width="1210"/>
  <unicode hex="0058"/>
  <anchor x="605" y="-97" name="L"/>
  <anchor x="605" y="1323" name="U"/>
  <outline>
    <contour>
      <point x="1136" y="1168" type="curve"/>
      <point x="1136" y="1217" type="line"/>
      <point x="704" y="1217" type="line"/>
      <point x="704" y="1168" type="line"/>
      <point x="817" y="1159"/>
      <point x="857" y="1144"/>
      <point x="821" y="1087" type="curve" smooth="yes"/>
      <point x="553" y="651" type="line"/>
      <point x="605" y="508" type="line"/>
      <point x="962" y="1087" type="line" smooth="yes"/>
      <point x="995" y="1142"/>
      <point x="1044" y="1157"/>
    </contour>
    <contour>
      <point x="732" y="0" type="line"/>
      <point x="1183" y="0" type="line"/>
      <point x="1183" y="49" type="line"/>
      <point x="1109" y="59"/>
      <point x="1072" y="75"/>
      <point x="1034" y="130" type="curve" smooth="yes"/>
      <point x="389" y="1087" type="line" smooth="yes"/>
      <point x="350" y="1143"/>
      <point x="383" y="1157"/>
      <point x="491" y="1168" type="curve"/>
      <point x="491" y="1217" type="line"/>
      <point x="37" y="1217" type="line"/>
      <point x="37" y="1168" type="line"/>
      <point x="121" y="1155"/>
      <point x="148" y="1144"/>
      <point x="186" y="1087" type="curve" smooth="yes"/>
      <point x="832" y="130" type="line" smooth="yes"/>
      <point x="867" y="78"/>
      <point x="843" y="61"/>
      <point x="732" y="49" type="curve"/>
    </contour>
    <contour>
      <point x="342" y="130" type="curve" smooth="yes"/>
      <point x="608" y="558" type="line"/>
      <point x="569" y="726" type="line"/>
      <point x="202" y="130" type="line" smooth="yes"/>
      <point x="169" y="77"/>
      <point x="110" y="55"/>
      <point x="28" y="49" type="curve"/>
      <point x="28" y="0" type="line"/>
      <point x="457" y="0" type="line"/>
      <point x="457" y="49" type="line"/>
      <point x="340" y="57"/>
      <point x="307" y="73"/>
    </contour>
  </outline>
</glyph>
<glyph name="asciicircum" format="2">
  <advance width="948"/>
  <unicode hex="005E"/>
  <anchor x="474" y="1599" name="U"/>
  <outline>
    <contour>
      <point x="852" y="601" type="curve"/>
      <point x="522" y="1466" type="line"/>
      <point x="487" y="1449"/>
      <point x="428" y="1412"/>
      <point x="397" y="1383" type="curve"/>
      <point x="96" y="560" type="line"/>
      <point x="117" y="534" type="line"/>
      <point x="143" y="547"/>
      <point x="192" y="575"/>
      <point x="218" y="601" type="curve"/>
      <point x="453" y="1244" type="line"/>
      <point x="718" y="560" type="line"/>
      <point x="753" y="534" type="line"/>
      <point x="795" y="554"/>
      <point x="821" y="571"/>
    </contour>
  </outline>
</glyph>
<glyph name="grave" format="2">
  <advance width="615"/>
  <unicode hex="0060"/>
  <anchor x="308" y="1334" name="U"/>
  <outline>
    <contour>
      <point x="416" y="1022" type="curve"/>
      <point x="197" y="1414" type="line"/>
      <point x="166" y="1411"/>
      <point x="66" y="1393"/>
      <point x="41" y="1388" type="curve"/>
      <point x="19" y="1345" type="line"/>
      <point x="356" y="989" type="line"/>
      <point x="378" y="995"/>
      <point x="404" y="1011"/>
    </contour>
  </outline>
</glyph>
<glyph name="b" format="2">
  <advance width="993"/>
  <unicode hex="0062"/>
  <anchor x="459" y="0" name="H"/>
  <anchor x="459" y="-95" name="L"/>
  <anchor x="1012" y="851" name="R"/>
  <anchor x="501" y="1533" name="U"/>
  <outline>
    <contour>
      <point x="911" y="469" type="curve"/>
      <point x="911" y="742"/>
      <point x="790" y="908"/>
      <point x="616" y="908" type="curve" smooth="yes"/>
      <point x="545" y="908"/>
      <point x="417" y="847"/>
      <point x="292" y="707" type="curve"/>
      <point x="292" y="1432" type="line"/>
      <point x="281" y="1444"/>
      <point x="269" y="1455"/>
      <point x="256" y="1466" type="curve"/>
      <point x="179" y="1428"/>
      <point x="100" y="1410"/>
      <point x="9" y="1391" type="curve"/>
      <point x="9" y="1345" type="line"/>
      <point x="112" y="1333"/>
      <point x="129" y="1330"/>
      <point x="129" y="1218" type="curve" smooth="yes"/>
      <point x="129" y="91" type="line"/>
      <point x="264" y="17"/>
      <point x="396" y="-28"/>
      <point x="449" y="-28" type="curve" smooth="yes"/>
      <point x="716" y="-28"/>
      <point x="911" y="250"/>
    </contour>
    <contour>
      <point x="763" y="388" type="curve"/>
      <point x="763" y="242"/>
      <point x="687" y="104"/>
      <point x="541" y="104" type="curve" smooth="yes"/>
      <point x="499" y="104"/>
      <point x="392" y="126"/>
      <point x="292" y="196" type="curve"/>
      <point x="292" y="594" type="line"/>
      <point x="394" y="730"/>
      <point x="493" y="771"/>
      <point x="537" y="771" type="curve" smooth="yes"/>
      <point x="656" y="771"/>
      <point x="763" y="639"/>
    </contour>
  </outline>
</glyph>
<glyph name="i" format="2">
  <advance width="539"/>
  <unicode hex="0069"/>
  <anchor x="277" y="0" name="H"/>
  <anchor x="277" y="-95" name="L"/>
  <anchor x="325" y="0" name="O"/>
  <anchor x="537" y="851" name="R"/>
  <anchor x="277" y="993" name="U"/>
  <outline>
    <contour>
      <point x="388" y="1193" type="curve" smooth="yes"/>
      <point x="388" y="1255"/>
      <point x="352" y="1287"/>
      <point x="295" y="1287" type="curve" smooth="yes"/>
      <point x="229" y="1287"/>
      <point x="174" y="1230"/>
      <point x="174" y="1154" type="curve" smooth="yes"/>
      <point x="174" y="1093"/>
      <point x="207" y="1060"/>
      <point x="266" y="1060" type="curve" smooth="yes"/>
      <point x="336" y="1060"/>
      <point x="388" y="1118"/>
    </contour>
    <contour>
      <point x="66" y="0" type="line"/>
      <point x="487" y="0" type="line"/>
      <point x="487" y="48" type="line"/>
      <point x="396" y="65"/>
      <point x="358" y="91"/>
      <point x="358" y="106" type="curve" smooth="yes"/>
      <point x="358" y="908" type="line"/>
      <point x="319" y="908" type="line"/>
      <point x="249" y="877"/>
      <point x="152" y="850"/>
      <point x="66" y="834" type="curve"/>
      <point x="66" y="789" type="line"/>
      <point x="194" y="777"/>
      <point x="195" y="758"/>
      <point x="195" y="628" type="curve" smooth="yes"/>
      <point x="195" y="106" type="line" smooth="yes"/>
      <point x="195" y="89"/>
      <point x="150" y="65"/>
      <point x="66" y="48" type="curve"/>
    </contour>
  </outline>
</glyph>
<glyph name="k" format="2">
  <advance width="970"/>
  <unicode hex="006B"/>
  <anchor x="246" y="0" name="H"/>
  <anchor x="501" y="-95" name="L"/>
  <anchor x="969" y="851" name="R"/>
  <anchor x="501" y="1533" name="U"/>
  <outline>
    <contour>
      <point x="938" y="832" type="curve"/>
      <point x="938" y="880" type="line"/>
      <point x="566" y="880" type="line"/>
      <point x="566" y="832" type="line"/>
      <point x="632" y="832"/>
      <point x="685" y="821"/>
      <point x="603" y="748" type="curve" smooth="yes"/>
      <point x="320" y="498" type="line"/>
      <point x="405" y="469" type="line"/>
      <point x="784" y="771" type="line" smooth="yes"/>
      <point x="837" y="814"/>
      <point x="883" y="826"/>
    </contour>
    <contour>
      <point x="33" y="0" type="line"/>
      <point x="428" y="0" type="line"/>
      <point x="428" y="48" type="line"/>
      <point x="336" y="78"/>
      <point x="325" y="87"/>
      <point x="325" y="106" type="curve" smooth="yes"/>
      <point x="325" y="1432" type="line"/>
      <point x="289" y="1466" type="line"/>
      <point x="220" y="1429"/>
      <point x="128" y="1409"/>
      <point x="33" y="1391" type="curve"/>
      <point x="33" y="1345" type="line"/>
      <point x="141" y="1333"/>
      <point x="162" y="1330"/>
      <point x="162" y="1218" type="curve" smooth="yes"/>
      <point x="162" y="106" type="line" smooth="yes"/>
      <point x="162" y="83"/>
      <point x="115" y="70"/>
      <point x="33" y="48" type="curve"/>
    </contour>
    <contour>
      <point x="971" y="21" type="curve"/>
      <point x="965" y="69" type="line"/>
      <point x="892" y="63"/>
      <point x="857" y="74"/>
      <point x="823" y="114" type="curve" smooth="yes"/>
      <point x="436" y="569" type="line"/>
      <point x="322" y="498" type="line"/>
      <point x="676" y="41" type="line" smooth="yes"/>
      <point x="705" y="4"/>
      <point x="733" y="-9"/>
      <point x="785" y="-9" type="curve" smooth="yes"/>
      <point x="812" y="-9"/>
      <point x="898" y="4"/>
    </contour>
  </outline>
</glyph>
<glyph name="n" format="2">
  <advance width="1077"/>
  <unicode hex="006E"/>
  <anchor x="839" y="0" name="H"/>
  <anchor x="550" y="-95" name="L"/>
  <anchor x="550" y="993" name="U"/>
  <outline>
    <contour>
      <point x="628" y="0" type="line"/>
      <point x="1050" y="0" type="line"/>
      <point x="1050" y="48" type="line"/>
      <point x="951" y="74"/>
      <point x="920" y="89"/>
      <point x="920" y="106" type="curve" smooth="yes"/>
      <point x="920" y="692" type="line" smooth="yes"/>
      <point x="920" y="843"/>
      <point x="821" y="908"/>
      <point x="713" y="908" type="curve" smooth="yes"/>
      <point x="616" y="908"/>
      <point x="459" y="821"/>
      <point x="340" y="664" type="curve"/>
      <point x="330" y="873" type="line"/>
      <point x="295" y="908" type="line"/>
      <point x="220" y="873"/>
      <point x="145" y="848"/>
      <point x="52" y="834" type="curve"/>
      <point x="52" y="789" type="line"/>
      <point x="177" y="775"/>
      <point x="181" y="765"/>
      <point x="181" y="667" type="curve" smooth="yes"/>
      <point x="181" y="106" type="line" smooth="yes"/>
      <point x="181" y="85"/>
      <point x="134" y="70"/>
      <point x="52" y="48" type="curve"/>
      <point x="52" y="0" type="line"/>
      <point x="473" y="0" type="line"/>
      <point x="473" y="48" type="line"/>
      <point x="393" y="65"/>
      <point x="344" y="87"/>
      <point x="344" y="106" type="curve" smooth="yes"/>
      <point x="344" y="542" type="line"/>
      <point x="465" y="713"/>
      <point x="571" y="772"/>
      <point x="643" y="772" type="curve" smooth="yes"/>
      <point x="727" y="772"/>
      <point x="757" y="737"/>
      <point x="757" y="587" type="curve" smooth="yes"/>
      <point x="757" y="106" type="line" smooth="yes"/>
      <point x="757" y="89"/>
      <point x="718" y="72"/>
      <point x="628" y="48" type="curve"/>
    </contour>
  </outline>
</glyph>
<glyph name="o" format="2">
  <advance width="980"/>
  <unicode hex="006F"/>
  <anchor x="509" y="0" name="H"/>
  <anchor x="509" y="-95" name="L"/>
  <anchor x="547" y="0" name="O"/>
  <anchor x="989" y="851" name="R"/>
  <anchor x="509" y="993" name="U"/>
  <outline>
    <contour>
      <point x="907" y="459" type="curve" smooth="yes"/>
      <point x="907" y="717"/>
      <point x="750" y="908"/>
      <point x="509" y="908" type="curve" smooth="yes"/>
      <point x="265" y="908"/>
      <point x="73" y="671"/>
      <point x="73" y="420" type="curve" smooth="yes"/>
      <point x="73" y="163"/>
      <point x="231" y="-28"/>
      <point x="472" y="-28" type="curve" smooth="yes"/>
      <point x="706" y="-28"/>
      <point x="907" y="207"/>
    </contour>
    <contour>
      <point x="738" y="427" type="curve" smooth="yes"/>
      <point x="738" y="213"/>
      <point x="668" y="79"/>
      <point x="499" y="79" type="curve" smooth="yes"/>
      <point x="383" y="79"/>
      <point x="243" y="248"/>
      <point x="243" y="447" type="curve" smooth="yes"/>
      <point x="243" y="647"/>
      <point x="301" y="800"/>
      <point x="482" y="800" type="curve" smooth="yes"/>
      <point x="610" y="800"/>
      <point x="738" y="626"/>
    </contour>
  </outline>
</glyph>
<glyph name="v" format="2">
  <advance width="957"/>
  <unicode hex="0076"/>
  <anchor x="472" y="0" name="H"/>
  <anchor x="489" y="-95" name="L"/>
  <anchor x="436" y="0" name="O"/>
  <anchor x="508" y="993" name="U"/>
  <outline>
    <contour>
      <point x="938" y="832" type="curve"/>
      <point x="938" y="880" type="line"/>
      <point x="635" y="880" type="line"/>
      <point x="635" y="832" type="line"/>
      <point x="725" y="817"/>
      <point x="741" y="805"/>
      <point x="727" y="767" type="curve" smooth="yes"/>
      <point x="518" y="196" type="line"/>
      <point x="295" y="767" type="line" smooth="yes"/>
      <point x="279" y="808"/>
      <point x="301" y="819"/>
      <point x="397" y="832" type="curve"/>
      <point x="397" y="880" type="line"/>
      <point x="19" y="880" type="line"/>
      <point x="19" y="832" type="line"/>
      <point x="81" y="817"/>
      <point x="108" y="800"/>
      <point x="121" y="767" type="curve" smooth="yes"/>
      <point x="436" y="-28" type="line"/>
      <point x="476" y="-19"/>
      <point x="551" y="5"/>
      <point x="572" y="61" type="curve" smooth="yes"/>
      <point x="837" y="767" type="line" smooth="yes"/>
      <point x="850" y="804"/>
      <point x="863" y="814"/>
    </contour>
  </outline>
</glyph>
<glyph name="x" format="2">
  <advance width="978"/>
  <unicode hex="0078"/>
  <anchor x="758" y="0" name="H"/>
  <anchor x="491" y="-95" name="L"/>
  <anchor x="491" y="993" name="U"/>
  <outline>
    <contour>
      <point x="942" y="832" type="curve"/>
      <point x="942" y="880" type="line"/>
      <point x="585" y="880" type="line"/>
      <point x="585" y="832" type="line"/>
      <point x="662" y="824"/>
      <point x="692" y="811"/>
      <point x="649" y="749" type="curve" smooth="yes"/>
      <point x="469" y="495" type="line"/>
      <point x="528" y="422" type="line"/>
      <point x="762" y="747" type="line" smooth="yes"/>
      <point x="796" y="794"/>
      <point x="841" y="824"/>
    </contour>
    <contour>
      <point x="564" y="0" type="line"/>
      <point x="963" y="0" type="line"/>
      <point x="963" y="48" type="line"/>
      <point x="881" y="60"/>
      <point x="842" y="98"/>
      <point x="815" y="136" type="curve"/>
      <point x="374" y="749" type="line" smooth="yes"/>
      <point x="331" y="809"/>
      <point x="365" y="824"/>
      <point x="441" y="832" type="curve"/>
      <point x="441" y="880" type="line"/>
      <point x="29" y="880" type="line"/>
      <point x="29" y="832" type="line"/>
      <point x="128" y="824"/>
      <point x="154" y="793"/>
      <point x="187" y="747" type="curve" smooth="yes"/>
      <point x="632" y="131" type="line" smooth="yes"/>
      <point x="681" y="62"/>
      <point x="626" y="54"/>
      <point x="564" y="48" type="curve"/>
    </contour>
    <contour>
      <point x="290" y="131" type="curve" smooth="yes"/>
      <point x="480" y="396" type="line"/>
      <point x="423" y="472" type="line"/>
      <point x="179" y="136" type="line" smooth="yes"/>
      <point x="151" y="97"/>
      <point x="117" y="63"/>
      <point x="19" y="48" type="curve"/>
      <point x="19" y="0" type="line"/>
      <point x="376" y="0" type="line"/>
      <point x="376" y="48" type="line"/>
      <point x="317" y="54"/>
      <point x="241" y="63"/>
    </contour>
  </outline>
</glyph>
<glyph name="z" format="2">
  <advance width="837"/>
  <unicode hex="007A"/>
  <anchor x="432" y="0" name="H"/>
  <anchor x="432" y="-95" name="L"/>
  <anchor x="458" y="993" name="U"/>
  <outline>
    <contour>
      <point x="792" y="255" type="curve"/>
      <point x="742" y="267" type="line"/>
      <point x="712" y="147"/>
      <point x="689" y="93"/>
      <point x="654" y="93" type="curve" smooth="yes"/>
      <point x="278" y="93" type="line"/>
      <point x="794" y="839" type="line"/>
      <point x="773" y="880" type="line"/>
      <point x="295" y="880" type="line" smooth="yes"/>
      <point x="215" y="880"/>
      <point x="185" y="880"/>
      <point x="130" y="895" type="curve"/>
      <point x="112" y="643" type="line"/>
      <point x="163" y="630" type="line"/>
      <point x="190" y="752"/>
      <point x="236" y="787"/>
      <point x="280" y="787" type="curve" smooth="yes"/>
      <point x="583" y="787" type="line"/>
      <point x="69" y="43" type="line"/>
      <point x="94" y="0" type="line"/>
      <point x="781" y="0" type="line"/>
      <point x="788" y="44"/>
      <point x="792" y="176"/>
    </contour>
  </outline>
</glyph>
<glyph name="asciitilde" format="2">
  <advance width="940"/>
  <unicode hex="007E"/>
  <outline>
    <contour>
      <point x="896" y="734" type="curve"/>
      <point x="842" y="760" type="line"/>
      <point x="791" y="657"/>
      <point x="733" y="608"/>
      <point x="676" y="608" type="curve" smooth="yes"/>
      <point x="575" y="608"/>
      <point x="451" y="760"/>
      <point x="332" y="760" type="curve" smooth="yes"/>
      <point x="209" y="760"/>
      <point x="98" y="597"/>
      <point x="44" y="473" type="curve"/>
      <point x="98" y="446" type="line"/>
      <point x="150" y="551"/>
      <point x="203" y="599"/>
      <point x="262" y="599" type="curve" smooth="yes"/>
      <point x="370" y="599"/>
      <point x="503" y="447"/>
      <point x="608" y="447" type="curve" smooth="yes"/>
      <point x="731" y="447"/>
      <point x="844" y="610"/>
    </contour>
  </outline>
</glyph>
<glyph name="sterling" format="2">
  <advance width="923"/>
  <unicode hex="00A3"/>
  <outline>
    <contour>
      <point x="831" y="1102" type="curve"/>
      <point x="715" y="1162"/>
      <point x="652" y="1168"/>
      <point x="587" y="1168" type="curve" smooth="yes"/>
      <point x="290" y="1168"/>
      <point x="154" y="927"/>
      <point x="183" y="547" type="curve" smooth="yes"/>
      <point x="212" y="160"/>
      <point x="178" y="123"/>
      <point x="58" y="24" type="curve"/>
      <point x="84" y="-28" type="line"/>
      <point x="267" y="90"/>
      <point x="658" y="-94"/>
      <point x="826" y="0" type="curve"/>
      <point x="835" y="37"/>
      <point x="857" y="145"/>
      <point x="866" y="254" type="curve"/>
      <point x="818" y="272" type="line"/>
      <point x="765" y="125"/>
      <point x="722" y="108"/>
      <point x="606" y="105" type="curve" smooth="yes"/>
      <point x="468" y="101"/>
      <point x="437" y="119"/>
      <point x="266" y="105" type="curve"/>
      <point x="340" y="209"/>
      <point x="389" y="371"/>
      <point x="367" y="563" type="curve" smooth="yes"/>
      <point x="314" y="1030"/>
      <point x="434" y="1069"/>
      <point x="529" y="1069" type="curve" smooth="yes"/>
      <point x="650" y="1069"/>
      <point x="725" y="994"/>
      <point x="743" y="838" type="curve"/>
      <point x="795" y="838" type="line"/>
      <point x="810" y="886"/>
      <point x="829" y="1038"/>
    </contour>
    <contour>
      <point x="604" y="503" type="line"/>
      <point x="632" y="573" type="line"/>
      <point x="606" y="597" type="line"/>
      <point x="81" y="597" type="line"/>
      <point x="73" y="577"/>
      <point x="62" y="548"/>
      <point x="56" y="529" type="curve"/>
      <point x="79" y="503" type="line"/>
    </contour>
  </outline>
</glyph>
<glyph name="section" format="2">
  <advance width="920"/>
  <unicode hex="00A7"/>
  <outline>
    <contour>
      <point x="420" y="-28" type="curve" smooth="yes"/>
      <point x="502" y="-28"/>
      <point x="755" y="-15"/>
      <point x="755" y="253" type="curve" smooth="yes"/>
      <point x="755" y="394"/>
      <point x="627" y="452"/>
      <point x="518" y="508" type="curve"/>
      <point x="335" y="613"/>
      <point x="253" y="665"/>
      <point x="253" y="780" type="curve" smooth="yes"/>
      <point x="253" y="857"/>
      <point x="311" y="923"/>
      <point x="399" y="935" type="curve"/>
      <point x="344" y="1007" type="line"/>
      <point x="218" y="977"/>
      <point x="110" y="854"/>
      <point x="110" y="734" type="curve" smooth="yes"/>
      <point x="110" y="570"/>
      <point x="221" y="482"/>
      <point x="375" y="398" type="curve" smooth="yes"/>
      <point x="488" y="336"/>
      <point x="611" y="295"/>
      <point x="611" y="194" type="curve" smooth="yes"/>
      <point x="611" y="109"/>
      <point x="553" y="70"/>
      <point x="463" y="70" type="curve" smooth="yes"/>
      <point x="339" y="70"/>
      <point x="242" y="165"/>
      <point x="231" y="278" type="curve"/>
      <point x="181" y="289" type="line"/>
      <point x="161" y="222"/>
      <point x="158" y="56"/>
      <point x="174" y="48" type="curve"/>
      <point x="258" y="2"/>
      <point x="355" y="-28"/>
    </contour>
    <contour>
      <point x="609" y="342" type="line"/>
      <point x="690" y="351"/>
      <point x="811" y="453"/>
      <point x="811" y="623" type="curve" smooth="yes"/>
      <point x="811" y="802"/>
      <point x="686" y="872"/>
      <point x="531" y="960" type="curve" smooth="yes"/>
      <point x="394" y="1038"/>
      <point x="317" y="1086"/>
      <point x="317" y="1173" type="curve" smooth="yes"/>
      <point x="317" y="1236"/>
      <point x="365" y="1273"/>
      <point x="445" y="1273" type="curve" smooth="yes"/>
      <point x="512" y="1273"/>
      <point x="577" y="1226"/>
      <point x="629" y="1130" type="curve"/>
      <point x="673" y="1123" type="line"/>
      <point x="693" y="1148"/>
      <point x="737" y="1268"/>
      <point x="722" y="1282" type="curve"/>
      <point x="669" y="1326"/>
      <point x="552" y="1362"/>
      <point x="466" y="1362" type="curve" smooth="yes"/>
      <point x="317" y="1362"/>
      <point x="173" y="1287"/>
      <point x="173" y="1130" type="curve" smooth="yes"/>
      <point x="173" y="1004"/>
      <point x="269" y="915"/>
      <point x="388" y="850" type="curve" smooth="yes"/>
      <point x="578" y="746"/>
      <point x="667" y="683"/>
      <point x="667" y="565" type="curve" smooth="yes"/>
      <point x="667" y="488"/>
      <point x="605" y="424"/>
      <point x="520" y="422" type="curve"/>
    </contour>
  </outline>
</glyph>
<glyph name="dieresis" format="2">
  <advance width="754"/>
  <unicode hex="00A8"/>
  <anchor x="377" y="1334" name="U"/>
  <outline>
    <contour>
      <point x="290" y="1195" type="curve"/>
      <point x="290" y="1258"/>
      <point x="260" y="1291"/>
      <point x="202" y="1291" type="curve" smooth="yes"/>
      <point x="138" y="1291"/>
      <point x="84" y="1230"/>
      <point x="84" y="1152" type="curve" smooth="yes"/>
      <point x="84" y="1090"/>
      <point x="112" y="1055"/>
      <point x="172" y="1055" type="curve" smooth="yes"/>
      <point x="238" y="1055"/>
      <point x="290" y="1118"/>
    </contour>
    <contour>
      <point x="670" y="1195" type="curve"/>
      <point x="670" y="1258"/>
      <point x="640" y="1291"/>
      <point x="582" y="1291" type="curve" smooth="yes"/>
      <point x="518" y="1291"/>
      <point x="464" y="1230"/>
      <point x="464" y="1152" type="curve" smooth="yes"/>
      <point x="464" y="1090"/>
      <point x="492" y="1055"/>
      <point x="552" y="1055" type="curve" smooth="yes"/>
      <point x="619" y="1055"/>
      <point x="670" y="1118"/>
    </contour>
  </outline>
</glyph>
<glyph name="softhyphen" format="2">
  <advance width="630"/>
  <unicode hex="00AD"/>
  <outline>
    <contour>
      <point x="76" y="541" type="line"/>
      <point x="489" y="541" type="line"/>
      <point x="530" y="561"/>
      <point x="549" y="579"/>
      <point x="579" y="610" type="curve"/>
      <point x="557" y="643" type="line"/>
      <point x="124" y="643" type="line"/>
      <point x="100" y="626"/>
      <point x="70" y="594"/>
      <point x="51" y="570" type="curve"/>
    </contour>
    <contour>
      <point x="76" y="297" type="line"/>
      <point x="489" y="297" type="line"/>
      <point x="530" y="318"/>
      <point x="549" y="336"/>
      <point x="579" y="366" type="curve"/>
      <point x="557" y="399" type="line"/>
      <point x="124" y="399" type="line"/>
      <point x="100" y="382"/>
      <point x="70" y="350"/>
      <point x="51" y="327" type="curve"/>
    </contour>
  </outline>
</glyph>
<glyph name="macron" format="2">
  <advance width="950"/>
  <unicode hex="00AF"/>
  <outline>
    <contour>
      <point x="813" y="1218" type="curve"/>
      <point x="791" y="1243" type="line"/>
      <point x="179" y="1243" type="line"/>
      <point x="167" y="1218"/>
      <point x="143" y="1165"/>
      <point x="137" y="1137" type="curve"/>
      <point x="159" y="1112" type="line"/>
      <point x="773" y="1112" type="line"/>
      <point x="783" y="1134"/>
      <point x="808" y="1191"/>
    </contour>
  </outline>
</glyph>
<glyph name="degree" format="2">
  <advance width="690"/>
  <unicode hex="00B0"/>
  <outline>
    <contour>
      <point x="564" y="990" type="curve"/>
      <point x="564" y="1089"/>
      <point x="482" y="1175"/>
      <point x="381" y="1175" type="curve" smooth="yes"/>
      <point x="261" y="1175"/>
      <point x="127" y="1058"/>
      <point x="127" y="896" type="curve" smooth="yes"/>
      <point x="127" y="795"/>
      <point x="203" y="711"/>
      <point x="309" y="711" type="curve" smooth="yes"/>
      <point x="428" y="711"/>
      <point x="564" y="831"/>
    </contour>
    <contour>
      <point x="451" y="941" type="curve"/>
      <point x="451" y="858"/>
      <point x="393" y="811"/>
      <point x="335" y="811" type="curve" smooth="yes"/>
      <point x="276" y="811"/>
      <point x="241" y="876"/>
      <point x="241" y="944" type="curve" smooth="yes"/>
      <point x="241" y="1024"/>
      <point x="296" y="1075"/>
      <point x="356" y="1075" type="curve" smooth="yes"/>
      <point x="414" y="1075"/>
      <point x="451" y="1012"/>
    </contour>
  </outline>
</glyph>
<glyph name="twosuperior" format="2">
  <advance width="647"/>
  <unicode hex="00B2"/>
  <anchor x="324" y="522" name="L"/>
  <anchor x="324" y="1340" name="U"/>
  <outline>
    <contour>
      <point x="564" y="587" type="line"/>
      <point x="574" y="760" type="line"/>
      <point x="528" y="767" type="line"/>
      <point x="528" y="767"/>
      <point x="520" y="671"/>
      <point x="461" y="671" type="curve" smooth="yes"/>
      <point x="205" y="671" type="line"/>
      <point x="477" y="942"/>
      <point x="564" y="1030"/>
      <point x="564" y="1131" type="curve" smooth="yes"/>
      <point x="564" y="1237"/>
      <point x="480" y="1288"/>
      <point x="360" y="1288" type="curve" smooth="yes"/>
      <point x="210" y="1288"/>
      <point x="74" y="1185"/>
      <point x="74" y="1107" type="curve"/>
      <point x="93" y="1084" type="line"/>
      <point x="133" y="1088"/>
      <point x="178" y="1100"/>
      <point x="208" y="1114" type="curve"/>
      <point x="205" y="1168"/>
      <point x="247" y="1224"/>
      <point x="315" y="1224" type="curve" smooth="yes"/>
      <point x="400" y="1224"/>
      <point x="432" y="1179"/>
      <point x="432" y="1111" type="curve" smooth="yes"/>
      <point x="432" y="1025"/>
      <point x="366" y="941"/>
      <point x="56" y="628" type="curve"/>
      <point x="75" y="587" type="line"/>
    </contour>
  </outline>
</glyph>
<glyph name="paragraph" format="2">
  <advance width="1093"/>
  <unicode hex="00B6"/>
  <outline>
    <contour>
      <point x="953" y="1192" type="curve"/>
      <point x="953" y="1192"/>
      <point x="595" y="1220"/>
      <point x="485" y="1220" type="curve" smooth="yes"/>
      <point x="223" y="1220"/>
      <point x="44" y="1069"/>
      <point x="44" y="854" type="curve" smooth="yes"/>
      <point x="44" y="618"/>
      <point x="240" y="496"/>
      <point x="482" y="496" type="curve" smooth="yes"/>
      <point x="608" y="496"/>
      <point x="643" y="531"/>
      <point x="643" y="531" type="curve"/>
      <point x="635" y="590" type="line"/>
      <point x="635" y="590"/>
      <point x="603" y="583"/>
      <point x="522" y="583" type="curve" smooth="yes"/>
      <point x="312" y="583"/>
      <point x="224" y="750"/>
      <point x="224" y="887" type="curve" smooth="yes"/>
      <point x="224" y="1028"/>
      <point x="336" y="1133"/>
      <point x="477" y="1133" type="curve" smooth="yes"/>
      <point x="545" y="1133"/>
      <point x="688" y="1124"/>
      <point x="809" y="1077" type="curve"/>
      <point x="819" y="1068"/>
      <point x="953" y="1192"/>
    </contour>
    <contour>
      <point x="427" y="-236" type="line"/>
      <point x="1019" y="-236" type="line"/>
      <point x="1019" y="-188" type="line"/>
      <point x="928" y="-170"/>
      <point x="884" y="-146"/>
      <point x="884" y="-130" type="curve" smooth="yes"/>
      <point x="884" y="1085" type="line" smooth="yes"/>
      <point x="884" y="1103"/>
      <point x="934" y="1126"/>
      <point x="1019" y="1144" type="curve"/>
      <point x="1019" y="1192" type="line"/>
      <point x="427" y="1192" type="line"/>
      <point x="427" y="1144" type="line"/>
      <point x="518" y="1126"/>
      <point x="564" y="1163"/>
      <point x="564" y="1147" type="curve" smooth="yes"/>
      <point x="562" y="-130" type="line" smooth="yes"/>
      <point x="562" y="-148"/>
      <point x="513" y="-170"/>
      <point x="427" y="-188" type="curve"/>
    </contour>
    <contour>
      <point x="762" y="1131" type="line"/>
      <point x="762" y="-130" type="line"/>
      <point x="762" y="-144"/>
      <point x="738" y="-155"/>
      <point x="723" y="-159" type="curve"/>
      <point x="711" y="-155"/>
      <point x="687" y="-144"/>
      <point x="687" y="-130" type="curve" smooth="yes"/>
      <point x="687" y="1149" type="line"/>
    </contour>
  </outline>
</glyph>
<glyph name="ordmasculine" format="2">
  <advance width="544"/>
  <unicode hex="00BA"/>
  <outline>
    <contour>
      <point x="500" y="935" type="curve"/>
      <point x="500" y="1072"/>
      <point x="411" y="1175"/>
      <point x="286" y="1175" type="curve" smooth="yes"/>
      <point x="150" y="1175"/>
      <point x="44" y="1047"/>
      <point x="44" y="916" type="curve" smooth="yes"/>
      <point x="44" y="778"/>
      <point x="129" y="676"/>
      <point x="258" y="676" type="curve" smooth="yes"/>
      <point x="379" y="676"/>
      <point x="500" y="805"/>
    </contour>
    <contour>
      <point x="55" y="554" type="line"/>
      <point x="489" y="554" type="line"/>
      <point x="489" y="627" type="line"/>
      <point x="55" y="627" type="line"/>
    </contour>
    <contour>
      <point x="401" y="918" type="curve"/>
      <point x="401" y="811"/>
      <point x="354" y="732"/>
      <point x="285" y="732" type="curve" smooth="yes"/>
      <point x="212" y="732"/>
      <point x="143" y="824"/>
      <point x="143" y="931" type="curve" smooth="yes"/>
      <point x="143" y="1038"/>
      <point x="185" y="1117"/>
      <point x="259" y="1117" type="curve" smooth="yes"/>
      <point x="339" y="1117"/>
      <point x="401" y="1024"/>
    </contour>
  </outline>
</glyph>
<glyph name="threequarters" format="2">
  <advance width="1147"/>
  <unicode hex="00BE"/>
  <outline>
    <contour>
      <point x="296" y="3" type="curve"/>
      <point x="1038" y="1142" type="line"/>
      <point x="1015" y="1168" type="line"/>
      <point x="988" y="1163"/>
      <point x="946" y="1148"/>
      <point x="922" y="1138" type="curve"/>
      <point x="176" y="0" type="line"/>
      <point x="200" y="-28" type="line"/>
      <point x="233" y="-20"/>
      <point x="267" y="-11"/>
    </contour>
    <contour>
      <point x="492" y="777" type="curve" smooth="yes"/>
      <point x="492" y="850"/>
      <point x="432" y="912"/>
      <point x="351" y="920" type="curve"/>
      <point x="419" y="940"/>
      <point x="461" y="992"/>
      <point x="461" y="1038" type="curve" smooth="yes"/>
      <point x="461" y="1099"/>
      <point x="412" y="1164"/>
      <point x="299" y="1164" type="curve" smooth="yes"/>
      <point x="184" y="1164"/>
      <point x="88" y="1090"/>
      <point x="88" y="1040" type="curve"/>
      <point x="103" y="1021" type="line"/>
      <point x="136" y="1024"/>
      <point x="175" y="1031"/>
      <point x="201" y="1043" type="curve"/>
      <point x="190" y="1084"/>
      <point x="220" y="1112"/>
      <point x="269" y="1112" type="curve" smooth="yes"/>
      <point x="330" y="1112"/>
      <point x="352" y="1072"/>
      <point x="352" y="1030" type="curve" smooth="yes"/>
      <point x="352" y="992"/>
      <point x="337" y="943"/>
      <point x="214" y="914" type="curve"/>
      <point x="221" y="877" type="line"/>
      <point x="243" y="881"/>
      <point x="239" y="881"/>
      <point x="259" y="881" type="curve" smooth="yes"/>
      <point x="315" y="881"/>
      <point x="382" y="851"/>
      <point x="382" y="762" type="curve" smooth="yes"/>
      <point x="382" y="685"/>
      <point x="329" y="646"/>
      <point x="252" y="646" type="curve" smooth="yes"/>
      <point x="199" y="646"/>
      <point x="153" y="658"/>
      <point x="88" y="699" type="curve"/>
      <point x="70" y="664" type="line"/>
      <point x="133" y="612"/>
      <point x="205" y="589"/>
      <point x="266" y="589" type="curve" smooth="yes"/>
      <point x="404" y="589"/>
      <point x="492" y="674"/>
    </contour>
    <contour>
      <point x="1076" y="200" type="curve"/>
      <point x="1062" y="215" type="line"/>
      <point x="1002" y="215" type="line"/>
      <point x="1002" y="549" type="line"/>
      <point x="982" y="566" type="line"/>
      <point x="958" y="556"/>
      <point x="917" y="543"/>
      <point x="887" y="532" type="curve"/>
      <point x="627" y="170" type="line"/>
      <point x="646" y="154" type="line"/>
      <point x="904" y="154" type="line"/>
      <point x="904" y="61" type="line" smooth="yes"/>
      <point x="904" y="51"/>
      <point x="890" y="42"/>
      <point x="798" y="29" type="curve"/>
      <point x="798" y="0" type="line"/>
      <point x="1069" y="0" type="line"/>
      <point x="1069" y="29" type="line"/>
      <point x="1011" y="41"/>
      <point x="1002" y="47"/>
      <point x="1002" y="57" type="curve" smooth="yes"/>
      <point x="1002" y="154" type="line"/>
      <point x="1031" y="154" type="line"/>
      <point x="1047" y="165"/>
      <point x="1061" y="181"/>
    </contour>
    <contour>
      <point x="904" y="459" type="line"/>
      <point x="904" y="215" type="line"/>
      <point x="721" y="215" type="line"/>
    </contour>
  </outline>
</glyph>
<glyph name="Egrave" format="2">
  <advance width="985"/>
  <unicode hex="00C8"/>
  <anchor x="488" y="0" name="H"/>
  <anchor x="488" y="-97" name="L"/>
  <anchor x="731" y="0" name="O"/>
  <anchor x="986" y="1063" name="R"/>
  <anchor x="488" y="1648" name="U"/>
  <outline>
    <contour>
      <point x="868" y="1191" type="curve"/>
      <point x="835" y="1217" type="line"/>
      <point x="336" y="1217" type="line"/>
      <point x="308" y="1122" type="line"/>
      <point x="700" y="1122" type="line" smooth="yes"/>
      <point x="747" y="1122"/>
      <point x="773" y="1079"/>
      <point x="778" y="960" type="curve"/>
      <point x="829" y="960" type="line"/>
      <point x="844" y="1009"/>
      <point x="864" y="1125"/>
    </contour>
    <contour>
      <point x="770" y="681" type="curve"/>
      <point x="743" y="710" type="line"/>
      <point x="316" y="710" type="line"/>
      <point x="295" y="623" type="line"/>
      <point x="493" y="623" type="line" smooth="yes"/>
      <point x="600" y="623"/>
      <point x="643" y="608"/>
      <point x="682" y="570" type="curve"/>
      <point x="710" y="590"/>
      <point x="749" y="645"/>
    </contour>
    <contour>
      <point x="930" y="251" type="curve"/>
      <point x="881" y="270" type="line"/>
      <point x="827" y="120"/>
      <point x="786" y="95"/>
      <point x="668" y="95" type="curve" smooth="yes"/>
      <point x="553" y="95" type="line" smooth="yes"/>
      <point x="385" y="95"/>
      <point x="358" y="119"/>
      <point x="358" y="156" type="curve" smooth="yes"/>
      <point x="358" y="1129" type="line" smooth="yes"/>
      <point x="358" y="1147"/>
      <point x="411" y="1159"/>
      <point x="497" y="1168" type="curve"/>
      <point x="497" y="1217" type="line"/>
      <point x="46" y="1217" type="line"/>
      <point x="46" y="1168" type="line"/>
      <point x="138" y="1150"/>
      <point x="182" y="1123"/>
      <point x="182" y="1108" type="curve" smooth="yes"/>
      <point x="182" y="108" type="line" smooth="yes"/>
      <point x="182" y="91"/>
      <point x="132" y="67"/>
      <point x="46" y="49" type="curve"/>
      <point x="46" y="0" type="line"/>
      <point x="891" y="0" type="line"/>
      <point x="902" y="38"/>
      <point x="921" y="140"/>
    </contour>
    <contour>
      <point x="661" y="1368" type="curve"/>
      <point x="296" y="1682" type="line"/>
      <point x="268" y="1667"/>
      <point x="183" y="1622"/>
      <point x="163" y="1603" type="curve"/>
      <point x="156" y="1555" type="line"/>
      <point x="612" y="1318" type="line"/>
      <point x="632" y="1328"/>
      <point x="644" y="1344"/>
    </contour>
  </outline>
</glyph>
<glyph name="Igrave" format="2">
  <advance width="597"/>
  <unicode hex="00CC"/>
  <anchor x="289" y="0" name="H"/>
  <anchor x="289" y="-97" name="L"/>
  <anchor x="339" y="0" name="O"/>
  <anchor x="560" y="1063" name="R"/>
  <anchor x="289" y="1648" name="U"/>
  <outline>
    <contour>
      <point x="65" y="0" type="line"/>
      <point x="514" y="0" type="line"/>
      <point x="514" y="49" type="line"/>
      <point x="422" y="67"/>
      <point x="377" y="93"/>
      <point x="377" y="108" type="curve" smooth="yes"/>
      <point x="377" y="1108" type="line" smooth="yes"/>
      <point x="377" y="1126"/>
      <point x="428" y="1150"/>
      <point x="514" y="1168" type="curve"/>
      <point x="514" y="1217" type="line"/>
      <point x="65" y="1217" type="line"/>
      <point x="65" y="1168" type="line"/>
      <point x="157" y="1150"/>
      <point x="202" y="1123"/>
      <point x="202" y="1108" type="curve" smooth="yes"/>
      <point x="202" y="108" type="line" smooth="yes"/>
      <point x="202" y="91"/>
      <point x="151" y="67"/>
      <point x="65" y="49" type="curve"/>
    </contour>
    <contour>
      <point x="462" y="1368" type="curve"/>
      <point x="97" y="1682" type="line"/>
      <point x="70" y="1667"/>
      <point x="-15" y="1622"/>
      <point x="-35" y="1603" type="curve"/>
      <point x="-43" y="1555" type="line"/>
      <point x="414" y="1318" type="line"/>
      <point x="434" y="1328"/>
      <point x="445" y="1344"/>
    </contour>
  </outline>
</glyph>
<glyph name="Iacute" format="2">
  <advance width="597"/>
  <unicode hex="00CD"/>
  <anchor x="289" y="0" name="H"/>
  <anchor x="289" y="-97" name="L"/>
  <anchor x="339" y="0" name="O"/>
  <anchor x="560" y="1063" name="R"/>
  <anchor x="289" y="1648" name="U"/>
  <outline>
    <contour>
      <point x="65" y="0" type="line"/>
      <point x="514" y="0" type="line"/>
      <point x="514" y="49" type="line"/>
      <point x="422" y="67"/>
      <point x="377" y="93"/>
      <point x="377" y="108" type="curve" smooth="yes"/>
      <point x="377" y="1108" type="line" smooth="yes"/>
      <point x="377" y="1126"/>
      <point x="428" y="1150"/>
      <point x="514" y="1168" type="curve"/>
      <point x="514" y="1217" type="line"/>
      <point x="65" y="1217" type="line"/>
      <point x="65" y="1168" type="line"/>
      <point x="157" y="1150"/>
      <point x="202" y="1123"/>
      <point x="202" y="1108" type="curve" smooth="yes"/>
      <point x="202" y="108" type="line" smooth="yes"/>
      <point x="202" y="91"/>
      <point x="151" y="67"/>
      <point x="65" y="49" type="curve"/>
    </contour>
    <contour>
      <point x="159" y="1319" type="curve"/>
      <point x="618" y="1552" type="line"/>
      <point x="609" y="1600" type="line"/>
      <point x="589" y="1620"/>
      <point x="503" y="1665"/>
      <point x="477" y="1680" type="curve"/>
      <point x="111" y="1368" type="line"/>
      <point x="127" y="1346"/>
      <point x="138" y="1328"/>
    </contour>
  </outline>
</glyph>
<glyph name="Odieresis" format="2">
  <advance width="1185"/>
  <unicode hex="00D6"/>
  <anchor x="565" y="0" name="H"/>
  <anchor x="595" y="-97" name="L"/>
  <anchor x="654" y="0" name="O"/>
  <anchor x="1201" y="1063" name="R"/>
  <anchor x="595" y="1633" name="U"/>
  <outline>
    <contour>
      <point x="557" y="-29" type="curve" smooth="yes"/>
      <point x="852" y="-29"/>
      <point x="1104" y="275"/>
      <point x="1104" y="625" type="curve" smooth="yes"/>
      <point x="1104" y="940"/>
      <point x="933" y="1246"/>
      <point x="612" y="1246" type="curve" smooth="yes"/>
      <point x="303" y="1246"/>
      <point x="65" y="942"/>
      <point x="65" y="591" type="curve" smooth="yes"/>
      <point x="65" y="267"/>
      <point x="245" y="-29"/>
    </contour>
    <contour>
      <point x="588" y="91" type="curve" smooth="yes"/>
      <point x="398" y="91"/>
      <point x="238" y="330"/>
      <point x="238" y="619" type="curve" smooth="yes"/>
      <point x="238" y="934"/>
      <point x="364" y="1131"/>
      <point x="579" y="1131" type="curve" smooth="yes"/>
      <point x="790" y="1131"/>
      <point x="931" y="874"/>
      <point x="931" y="608" type="curve" smooth="yes"/>
      <point x="931" y="267"/>
      <point x="788" y="91"/>
    </contour>
    <contour>
      <point x="505" y="1491" type="curve"/>
      <point x="505" y="1555"/>
      <point x="475" y="1589"/>
      <point x="415" y="1589" type="curve" smooth="yes"/>
      <point x="350" y="1589"/>
      <point x="295" y="1526"/>
      <point x="295" y="1447" type="curve" smooth="yes"/>
      <point x="295" y="1383"/>
      <point x="324" y="1348"/>
      <point x="384" y="1348" type="curve" smooth="yes"/>
      <point x="453" y="1348"/>
      <point x="505" y="1412"/>
    </contour>
    <contour>
      <point x="893" y="1491" type="curve"/>
      <point x="893" y="1555"/>
      <point x="862" y="1589"/>
      <point x="803" y="1589" type="curve" smooth="yes"/>
      <point x="738" y="1589"/>
      <point x="683" y="1526"/>
      <point x="683" y="1447" type="curve" smooth="yes"/>
      <point x="683" y="1383"/>
      <point x="711" y="1348"/>
      <point x="772" y="1348" type="curve" smooth="yes"/>
      <point x="840" y="1348"/>
      <point x="893" y="1412"/>
    </contour>
  </outline>
</glyph>
<glyph name="multiply" format="2">
  <advance width="708"/>
  <unicode hex="00D7"/>
  <outline>
    <contour>
      <point x="637" y="287" type="line"/>
      <point x="165" y="760" type="line"/>
      <point x="137" y="753"/>
      <point x="95" y="738"/>
      <point x="70" y="727" type="curve"/>
      <point x="71" y="694" type="line"/>
      <point x="543" y="222" type="line"/>
      <point x="565" y="227"/>
      <point x="612" y="244"/>
      <point x="637" y="255" type="curve"/>
    </contour>
    <contour>
      <point x="631" y="727" type="line"/>
      <point x="607" y="738"/>
      <point x="563" y="753"/>
      <point x="536" y="760" type="curve"/>
      <point x="69" y="287" type="line"/>
      <point x="69" y="255" type="line"/>
      <point x="95" y="244"/>
      <point x="140" y="227"/>
      <point x="164" y="222" type="curve"/>
      <point x="631" y="694" type="line"/>
    </contour>
  </outline>
</glyph>
<glyph name="germandbls" format="2">
  <advance width="1120"/>
  <unicode hex="00DF"/>
  <anchor x="545" y="-95" name="L"/>
  <anchor x="545" y="1599" name="U"/>
  <outline>
    <contour>
      <point x="1044" y="268" type="curve"/>
      <point x="1044" y="577"/>
      <point x="625" y="561"/>
      <point x="625" y="728" type="curve" smooth="yes"/>
      <point x="625" y="880"/>
      <point x="947" y="815"/>
      <point x="947" y="1126" type="curve" smooth="yes"/>
      <point x="947" y="1270"/>
      <point x="853" y="1466"/>
      <point x="631" y="1466" type="curve" smooth="yes"/>
      <point x="537" y="1466"/>
      <point x="446" y="1432"/>
      <point x="378" y="1379" type="curve" smooth="yes"/>
      <point x="280" y="1302"/>
      <point x="181" y="1209"/>
      <point x="181" y="905" type="curve" smooth="yes"/>
      <point x="181" y="104" type="line" smooth="yes"/>
      <point x="181" y="89"/>
      <point x="136" y="63"/>
      <point x="52" y="48" type="curve"/>
      <point x="52" y="0" type="line"/>
      <point x="344" y="0" type="line"/>
      <point x="344" y="957" type="line" smooth="yes"/>
      <point x="344" y="1270"/>
      <point x="429" y="1342"/>
      <point x="546" y="1342" type="curve" smooth="yes"/>
      <point x="709" y="1342"/>
      <point x="783" y="1197"/>
      <point x="783" y="1061" type="curve" smooth="yes"/>
      <point x="783" y="880"/>
      <point x="473" y="939"/>
      <point x="473" y="690" type="curve" smooth="yes"/>
      <point x="473" y="426"/>
      <point x="900" y="460"/>
      <point x="900" y="203" type="curve" smooth="yes"/>
      <point x="900" y="123"/>
      <point x="834" y="72"/>
      <point x="748" y="72" type="curve" smooth="yes"/>
      <point x="652" y="72"/>
      <point x="543" y="131"/>
      <point x="522" y="269" type="curve"/>
      <point x="475" y="281" type="line"/>
      <point x="456" y="255"/>
      <point x="451" y="63"/>
      <point x="464" y="44" type="curve" smooth="yes"/>
      <point x="483" y="14"/>
      <point x="634" y="-28"/>
      <point x="713" y="-28" type="curve" smooth="yes"/>
      <point x="944" y="-28"/>
      <point x="1044" y="116"/>
    </contour>
  </outline>
</glyph>
<glyph name="atilde" format="2">
  <advance width="905"/>
  <unicode hex="00E3"/>
  <anchor x="413" y="0" name="H"/>
  <anchor x="441" y="-95" name="L"/>
  <anchor x="688" y="0" name="O"/>
  <anchor x="903" y="851" name="R"/>
  <anchor x="460" y="1366" name="U"/>
  <outline>
    <contour>
      <point x="892" y="85" type="curve"/>
      <point x="876" y="135" type="line"/>
      <point x="827" y="114"/>
      <point x="804" y="110"/>
      <point x="786" y="110" type="curve" smooth="yes"/>
      <point x="764" y="110"/>
      <point x="749" y="131"/>
      <point x="749" y="184" type="curve" smooth="yes"/>
      <point x="749" y="696" type="line" smooth="yes"/>
      <point x="749" y="826"/>
      <point x="671" y="908"/>
      <point x="525" y="908" type="curve" smooth="yes"/>
      <point x="353" y="908"/>
      <point x="156" y="793"/>
      <point x="98" y="660" type="curve"/>
      <point x="113" y="620" type="line"/>
      <point x="143" y="612"/>
      <point x="297" y="656"/>
      <point x="294" y="679" type="curve" smooth="yes"/>
      <point x="287" y="755"/>
      <point x="363" y="804"/>
      <point x="438" y="806" type="curve" smooth="yes"/>
      <point x="553" y="809"/>
      <point x="586" y="744"/>
      <point x="586" y="660" type="curve" smooth="yes"/>
      <point x="586" y="155" type="line" smooth="yes"/>
      <point x="586" y="43"/>
      <point x="618" y="-28"/>
      <point x="664" y="-28" type="curve" smooth="yes"/>
      <point x="701" y="-28"/>
      <point x="786" y="11"/>
    </contour>
    <contour>
      <point x="595" y="458" type="curve"/>
      <point x="595" y="534" type="line"/>
      <point x="296" y="490"/>
      <point x="218" y="441"/>
      <point x="157" y="379" type="curve" smooth="yes"/>
      <point x="111" y="333"/>
      <point x="73" y="273"/>
      <point x="73" y="180" type="curve" smooth="yes"/>
      <point x="73" y="33"/>
      <point x="183" y="-28"/>
      <point x="277" y="-28" type="curve" smooth="yes"/>
      <point x="361" y="-28"/>
      <point x="485" y="22"/>
      <point x="603" y="149" type="curve"/>
      <point x="595" y="229" type="line"/>
      <point x="497" y="141"/>
      <point x="416" y="106"/>
      <point x="347" y="106" type="curve" smooth="yes"/>
      <point x="314" y="106"/>
      <point x="249" y="128"/>
      <point x="249" y="224" type="curve" smooth="yes"/>
      <point x="249" y="281"/>
      <point x="272" y="322"/>
      <point x="304" y="356" type="curve" smooth="yes"/>
      <point x="343" y="396"/>
      <point x="395" y="426"/>
    </contour>
    <contour>
      <point x="791" y="1275" type="curve"/>
      <point x="734" y="1300" type="line"/>
      <point x="692" y="1226"/>
      <point x="645" y="1182"/>
      <point x="599" y="1182" type="curve" smooth="yes"/>
      <point x="537" y="1182"/>
      <point x="465" y="1288"/>
      <point x="368" y="1288" type="curve" smooth="yes"/>
      <point x="263" y="1288"/>
      <point x="181" y="1165"/>
      <point x="137" y="1062" type="curve"/>
      <point x="194" y="1041" type="line"/>
      <point x="240" y="1111"/>
      <point x="278" y="1156"/>
      <point x="326" y="1156" type="curve" smooth="yes"/>
      <point x="399" y="1156"/>
      <point x="470" y="1051"/>
      <point x="559" y="1051" type="curve" smooth="yes"/>
      <point x="664" y="1051"/>
      <point x="747" y="1173"/>
    </contour>
  </outline>
</glyph>
<glyph name="igrave" format="2">
  <advance width="539"/>
  <unicode hex="00EC"/>
  <anchor x="277" y="0" name="H"/>
  <anchor x="277" y="-95" name="L"/>
  <anchor x="325" y="0" name="O"/>
  <anchor x="537" y="851" name="R"/>
  <anchor x="277" y="1351" name="U"/>
  <outline>
    <contour>
      <point x="66" y="0" type="line"/>
      <point x="487" y="0" type="line"/>
      <point x="487" y="48" type="line"/>
      <point x="396" y="65"/>
      <point x="358" y="91"/>
      <point x="358" y="106" type="curve" smooth="yes"/>
      <point x="358" y="908" type="line"/>
      <point x="319" y="908" type="line"/>
      <point x="249" y="877"/>
      <point x="152" y="850"/>
      <point x="66" y="834" type="curve"/>
      <point x="66" y="789" type="line"/>
      <point x="198" y="777"/>
      <point x="195" y="758"/>
      <point x="195" y="628" type="curve" smooth="yes"/>
      <point x="195" y="106" type="line" smooth="yes"/>
      <point x="195" y="89"/>
      <point x="150" y="65"/>
      <point x="66" y="48" type="curve"/>
    </contour>
    <contour>
      <point x="387" y="1022" type="curve"/>
      <point x="168" y="1414" type="line"/>
      <point x="137" y="1412"/>
      <point x="37" y="1394"/>
      <point x="12" y="1388" type="curve"/>
      <point x="-10" y="1345" type="line"/>
      <point x="327" y="989" type="line"/>
      <point x="349" y="995"/>
      <point x="371" y="1007"/>
    </contour>
  </outline>
</glyph>
<glyph name="idieresis" format="2">
  <advance width="539"/>
  <unicode hex="00EF"/>
  <anchor x="277" y="0" name="H"/>
  <anchor x="277" y="-95" name="L"/>
  <anchor x="325" y="0" name="O"/>
  <anchor x="537" y="851" name="R"/>
  <anchor x="277" y="1368" name="U"/>
  <outline>
    <contour>
      <point x="66" y="0" type="line"/>
      <point x="487" y="0" type="line"/>
      <point x="487" y="48" type="line"/>
      <point x="396" y="65"/>
      <point x="358" y="91"/>
      <point x="358" y="106" type="curve" smooth="yes"/>
      <point x="358" y="908" type="line"/>
      <point x="319" y="908" type="line"/>
      <point x="249" y="877"/>
      <point x="152" y="850"/>
      <point x="66" y="834" type="curve"/>
      <point x="66" y="789" type="line"/>
      <point x="198" y="777"/>
      <point x="195" y="758"/>
      <point x="195" y="628" type="curve" smooth="yes"/>
      <point x="195" y="106" type="line" smooth="yes"/>
      <point x="195" y="89"/>
      <point x="150" y="65"/>
      <point x="66" y="48" type="curve"/>
    </contour>
    <contour>
      <point x="189" y="1195" type="curve"/>
      <point x="189" y="1258"/>
      <point x="159" y="1291"/>
      <point x="101" y="1291" type="curve" smooth="yes"/>
      <point x="38" y="1291"/>
      <point x="-17" y="1230"/>
      <point x="-17" y="1152" type="curve" smooth="yes"/>
      <point x="-17" y="1090"/>
      <point x="11" y="1055"/>
      <point x="71" y="1055" type="curve" smooth="yes"/>
      <point x="138" y="1055"/>
      <point x="189" y="1118"/>
    </contour>
    <contour>
      <point x="570" y="1195" type="curve"/>
      <point x="570" y="1258"/>
      <point x="540" y="1291"/>
      <point x="482" y="1291" type="curve" smooth="yes"/>
      <point x="418" y="1291"/>
      <point x="364" y="1230"/>
      <point x="364" y="1152" type="curve" smooth="yes"/>
      <point x="364" y="1090"/>
      <point x="392" y="1055"/>
      <point x="452" y="1055" type="curve" smooth="yes"/>
      <point x="518" y="1055"/>
      <point x="570" y="1118"/>
    </contour>
  </outline>
</glyph>
<glyph name="ntilde" format="2">
  <advance width="1077"/>
  <unicode hex="00F1"/>
  <anchor x="839" y="0" name="H"/>
  <anchor x="550" y="-95" name="L"/>
  <anchor x="550" y="1366" name="U"/>
  <outline>
    <contour>
      <point x="628" y="0" type="line"/>
      <point x="1050" y="0" type="line"/>
      <point x="1050" y="48" type="line"/>
      <point x="951" y="74"/>
      <point x="920" y="89"/>
      <point x="920" y="106" type="curve" smooth="yes"/>
      <point x="920" y="692" type="line" smooth="yes"/>
      <point x="920" y="843"/>
      <point x="821" y="908"/>
      <point x="713" y="908" type="curve" smooth="yes"/>
      <point x="616" y="908"/>
      <point x="459" y="821"/>
      <point x="340" y="664" type="curve"/>
      <point x="330" y="873" type="line"/>
      <point x="295" y="908" type="line"/>
      <point x="220" y="873"/>
      <point x="145" y="848"/>
      <point x="52" y="834" type="curve"/>
      <point x="52" y="789" type="line"/>
      <point x="177" y="775"/>
      <point x="181" y="765"/>
      <point x="181" y="667" type="curve" smooth="yes"/>
      <point x="181" y="106" type="line" smooth="yes"/>
      <point x="181" y="85"/>
      <point x="134" y="70"/>
      <point x="52" y="48" type="curve"/>
      <point x="52" y="0" type="line"/>
      <point x="473" y="0" type="line"/>
      <point x="473" y="48" type="line"/>
      <point x="393" y="65"/>
      <point x="344" y="87"/>
      <point x="344" y="106" type="curve" smooth="yes"/>
      <point x="344" y="542" type="line"/>
      <point x="465" y="713"/>
      <point x="571" y="772"/>
      <point x="643" y="772" type="curve" smooth="yes"/>
      <point x="727" y="772"/>
      <point x="757" y="737"/>
      <point x="757" y="587" type="curve" smooth="yes"/>
      <point x="757" y="106" type="line" smooth="yes"/>
      <point x="757" y="89"/>
      <point x="718" y="72"/>
      <point x="628" y="48" type="curve"/>
    </contour>
    <contour>
      <point x="881" y="1275" type="curve"/>
      <point x="824" y="1300" type="line"/>
      <point x="782" y="1226"/>
      <point x="735" y="1182"/>
      <point x="689" y="1182" type="curve" smooth="yes"/>
      <point x="627" y="1182"/>
      <point x="555" y="1288"/>
      <point x="458" y="1288" type="curve" smooth="yes"/>
      <point x="353" y="1288"/>
      <point x="271" y="1165"/>
      <point x="227" y="1062" type="curve"/>
      <point x="284" y="1041" type="line"/>
      <point x="330" y="1111"/>
      <point x="368" y="1156"/>
      <point x="416" y="1156" type="curve" smooth="yes"/>
      <point x="489" y="1156"/>
      <point x="560" y="1051"/>
      <point x="649" y="1051" type="curve" smooth="yes"/>
      <point x="753" y="1051"/>
      <point x="837" y="1173"/>
    </contour>
  </outline>
</glyph>
<glyph name="ocircumflex" format="2">
  <advance width="980"/>
  <unicode hex="00F4"/>
  <anchor x="509" y="0" name="H"/>
  <anchor x="509" y="-95" name="L"/>
  <anchor x="547" y="0" name="O"/>
  <anchor x="989" y="851" name="R"/>
  <anchor x="509" y="1423" name="U"/>
  <outline>
    <contour>
      <point x="907" y="459" type="curve" smooth="yes"/>
      <point x="907" y="717"/>
      <point x="750" y="908"/>
      <point x="509" y="908" type="curve" smooth="yes"/>
      <point x="265" y="908"/>
      <point x="73" y="671"/>
      <point x="73" y="420" type="curve" smooth="yes"/>
      <point x="73" y="163"/>
      <point x="231" y="-28"/>
      <point x="472" y="-28" type="curve" smooth="yes"/>
      <point x="706" y="-28"/>
      <point x="907" y="207"/>
    </contour>
    <contour>
      <point x="738" y="427" type="curve" smooth="yes"/>
      <point x="738" y="213"/>
      <point x="668" y="79"/>
      <point x="499" y="79" type="curve" smooth="yes"/>
      <point x="383" y="79"/>
      <point x="243" y="248"/>
      <point x="243" y="447" type="curve" smooth="yes"/>
      <point x="243" y="647"/>
      <point x="301" y="800"/>
      <point x="482" y="800" type="curve" smooth="yes"/>
      <point x="610" y="800"/>
      <point x="738" y="626"/>
    </contour>
    <contour>
      <point x="811" y="1037" type="curve"/>
      <point x="563" y="1397" type="line"/>
      <point x="456" y="1397" type="line"/>
      <point x="204" y="1037" type="line"/>
      <point x="222" y="1013"/>
      <point x="232" y="998"/>
      <point x="252" y="989" type="curve"/>
      <point x="508" y="1231" type="line"/>
      <point x="767" y="989" type="line"/>
      <point x="788" y="998"/>
      <point x="796" y="1013"/>
    </contour>
  </outline>
</glyph>
<glyph name="oslash" format="2">
  <advance width="980"/>
  <unicode hex="00F8"/>
  <anchor x="509" y="0" name="H"/>
  <anchor x="500" y="-95" name="L"/>
  <anchor x="547" y="0" name="O"/>
  <anchor x="1001" y="851" name="R"/>
  <anchor x="500" y="993" name="U"/>
  <outline>
    <contour>
      <point x="907" y="459" type="curve" smooth="yes"/>
      <point x="907" y="583"/>
      <point x="870" y="693"/>
      <point x="805" y="772" type="curve"/>
      <point x="902" y="899" type="line"/>
      <point x="872" y="930" type="line"/>
      <point x="835" y="920"/>
      <point x="783" y="885"/>
      <point x="750" y="864" type="curve"/>
      <point x="731" y="840" type="line"/>
      <point x="670" y="884"/>
      <point x="594" y="908"/>
      <point x="509" y="908" type="curve" smooth="yes"/>
      <point x="265" y="908"/>
      <point x="73" y="671"/>
      <point x="73" y="420" type="curve" smooth="yes"/>
      <point x="73" y="296"/>
      <point x="112" y="185"/>
      <point x="177" y="106" type="curve"/>
      <point x="83" y="-20" type="line"/>
      <point x="109" y="-50" type="line"/>
      <point x="142" y="-41"/>
      <point x="211" y="-3"/>
      <point x="234" y="16" type="curve"/>
      <point x="251" y="38" type="line"/>
      <point x="311" y="-4"/>
      <point x="388" y="-28"/>
      <point x="472" y="-28" type="curve" smooth="yes"/>
      <point x="706" y="-28"/>
      <point x="907" y="207"/>
    </contour>
    <contour>
      <point x="289" y="254" type="line"/>
      <point x="260" y="309"/>
      <point x="241" y="378"/>
      <point x="241" y="447" type="curve" smooth="yes"/>
      <point x="241" y="647"/>
      <point x="301" y="800"/>
      <point x="482" y="800" type="curve" smooth="yes"/>
      <point x="536" y="800"/>
      <point x="592" y="767"/>
      <point x="637" y="716" type="curve"/>
    </contour>
    <contour>
      <point x="499" y="79" type="curve" smooth="yes"/>
      <point x="449" y="79"/>
      <point x="393" y="113"/>
      <point x="347" y="165" type="curve"/>
      <point x="693" y="624" type="line"/>
      <point x="722" y="568"/>
      <point x="739" y="498"/>
      <point x="739" y="427" type="curve" smooth="yes"/>
      <point x="739" y="213"/>
      <point x="668" y="79"/>
    </contour>
  </outline>
</glyph>
<glyph name="uacute" format="2">
  <advance width="1037"/>
  <unicode hex="00FA"/>
  <anchor x="511" y="0" name="H"/>
  <anchor x="521" y="-95" name="L"/>
  <anchor x="813" y="0" name="O"/>
  <anchor x="1053" y="851" name="R"/>
  <anchor x="504" y="1351" name="U"/>
  <outline>
    <contour>
      <point x="1022" y="85" type="curve"/>
      <point x="1009" y="135" type="line"/>
      <point x="946" y="108"/>
      <point x="914" y="103"/>
      <point x="900" y="114" type="curve" smooth="yes"/>
      <point x="884" y="126"/>
      <point x="878" y="170"/>
      <point x="878" y="248" type="curve" smooth="yes"/>
      <point x="878" y="869" type="line"/>
      <point x="848" y="908" type="line"/>
      <point x="773" y="885"/>
      <point x="685" y="859"/>
      <point x="586" y="848" type="curve"/>
      <point x="586" y="802" type="line"/>
      <point x="701" y="797"/>
      <point x="715" y="780"/>
      <point x="715" y="667" type="curve" smooth="yes"/>
      <point x="715" y="248" type="line"/>
      <point x="607" y="137"/>
      <point x="528" y="98"/>
      <point x="455" y="98" type="curve" smooth="yes"/>
      <point x="370" y="98"/>
      <point x="321" y="147"/>
      <point x="321" y="318" type="curve" smooth="yes"/>
      <point x="321" y="869" type="line"/>
      <point x="292" y="908" type="line"/>
      <point x="204" y="875"/>
      <point x="138" y="859"/>
      <point x="39" y="848" type="curve"/>
      <point x="39" y="802" type="line"/>
      <point x="153" y="791"/>
      <point x="158" y="787"/>
      <point x="158" y="667" type="curve" smooth="yes"/>
      <point x="158" y="264" type="line" smooth="yes"/>
      <point x="158" y="27"/>
      <point x="268" y="-28"/>
      <point x="384" y="-28" type="curve" smooth="yes"/>
      <point x="464" y="-28"/>
      <point x="560" y="-2"/>
      <point x="715" y="149" type="curve"/>
      <point x="724" y="20"/>
      <point x="756" y="-28"/>
      <point x="800" y="-28" type="curve" smooth="yes"/>
      <point x="831" y="-28"/>
      <point x="931" y="25"/>
    </contour>
    <contour>
      <point x="476" y="989" type="curve"/>
      <point x="809" y="1348" type="line"/>
      <point x="785" y="1389" type="line"/>
      <point x="757" y="1397"/>
      <point x="658" y="1412"/>
      <point x="629" y="1414" type="curve"/>
      <point x="415" y="1019" type="line"/>
      <point x="429" y="1007"/>
      <point x="454" y="992"/>
    </contour>
  </outline>
</glyph>
<glyph name="OE" format="2">
  <advance width="1583"/>
  <unicode hex="0152"/>
  <anchor x="796" y="-97" name="L"/>
  <anchor x="796" y="1323" name="U"/>
  <outline>
    <contour>
      <point x="1466" y="1191" type="curve"/>
      <point x="1435" y="1217" type="line"/>
      <point x="966" y="1217" type="line"/>
      <point x="939" y="1122" type="line"/>
      <point x="1298" y="1122" type="line" smooth="yes"/>
      <point x="1348" y="1122"/>
      <point x="1370" y="1079"/>
      <point x="1376" y="960" type="curve"/>
      <point x="1429" y="960" type="line"/>
      <point x="1445" y="1009"/>
      <point x="1462" y="1125"/>
    </contour>
    <contour>
      <point x="1370" y="681" type="curve"/>
      <point x="1341" y="710" type="line"/>
      <point x="948" y="710" type="line"/>
      <point x="924" y="625" type="line"/>
      <point x="1093" y="625" type="line" smooth="yes"/>
      <point x="1200" y="625"/>
      <point x="1243" y="610"/>
      <point x="1283" y="572" type="curve"/>
      <point x="1307" y="592"/>
      <point x="1347" y="645"/>
    </contour>
    <contour>
      <point x="1531" y="251" type="curve"/>
      <point x="1482" y="270" type="line"/>
      <point x="1426" y="120"/>
      <point x="1387" y="95"/>
      <point x="1269" y="95" type="curve" smooth="yes"/>
      <point x="1154" y="95" type="line" smooth="yes"/>
      <point x="986" y="95"/>
      <point x="989" y="119"/>
      <point x="989" y="156" type="curve" smooth="yes"/>
      <point x="989" y="1128" type="line" smooth="yes"/>
      <point x="989" y="1146"/>
      <point x="1040" y="1150"/>
      <point x="1126" y="1168" type="curve"/>
      <point x="1126" y="1217" type="line"/>
      <point x="966" y="1217" type="line"/>
      <point x="677" y="1217" type="line"/>
      <point x="677" y="1168" type="line"/>
      <point x="769" y="1150"/>
      <point x="812" y="1123"/>
      <point x="812" y="1108" type="curve" smooth="yes"/>
      <point x="812" y="108" type="line" smooth="yes"/>
      <point x="812" y="91"/>
      <point x="763" y="67"/>
      <point x="677" y="49" type="curve"/>
      <point x="677" y="0" type="line"/>
      <point x="1492" y="0" type="line"/>
      <point x="1501" y="38"/>
      <point x="1521" y="140"/>
    </contour>
    <contour>
      <point x="864" y="997" type="curve"/>
      <point x="864" y="997"/>
      <point x="849" y="1178"/>
      <point x="862" y="1217" type="curve"/>
      <point x="754" y="1217"/>
      <point x="717" y="1246"/>
      <point x="610" y="1246" type="curve" smooth="yes"/>
      <point x="303" y="1246"/>
      <point x="63" y="942"/>
      <point x="63" y="591" type="curve" smooth="yes"/>
      <point x="63" y="267"/>
      <point x="245" y="-29"/>
      <point x="555" y="-29" type="curve" smooth="yes"/>
      <point x="672" y="-29"/>
      <point x="710" y="0"/>
      <point x="862" y="0" type="curve" smooth="yes"/>
      <point x="862" y="0"/>
      <point x="894" y="93"/>
      <point x="829" y="153" type="curve"/>
      <point x="763" y="100"/>
      <point x="696" y="91"/>
      <point x="586" y="91" type="curve" smooth="yes"/>
      <point x="395" y="91"/>
      <point x="236" y="330"/>
      <point x="236" y="619" type="curve" smooth="yes"/>
      <point x="236" y="934"/>
      <point x="362" y="1132"/>
      <point x="577" y="1132" type="curve" smooth="yes"/>
      <point x="690" y="1132"/>
      <point x="796" y="1092"/>
    </contour>
  </outline>
</glyph>
<glyph name="florin" format="2">
  <advance width="571"/>
  <unicode hex="0192"/>
  <anchor x="257" y="-568" name="L"/>
  <anchor x="257" y="1599" name="U"/>
  <outline>
    <contour>
      <point x="764" y="1375" type="curve"/>
      <point x="764" y="1397"/>
      <point x="658" y="1466"/>
      <point x="572" y="1466" type="curve" smooth="yes"/>
      <point x="516" y="1466"/>
      <point x="414" y="1430"/>
      <point x="342" y="1368" type="curve" smooth="yes"/>
      <point x="244" y="1285"/>
      <point x="161" y="1188"/>
      <point x="161" y="909" type="curve" smooth="yes"/>
      <point x="161" y="880" type="line"/>
      <point x="92" y="880" type="line"/>
      <point x="19" y="812" type="line"/>
      <point x="40" y="783" type="line"/>
      <point x="161" y="783" type="line"/>
      <point x="161" y="43" type="line" smooth="yes"/>
      <point x="161" y="-264"/>
      <point x="89" y="-334"/>
      <point x="20" y="-334" type="curve" smooth="yes"/>
      <point x="-28" y="-334"/>
      <point x="-68" y="-325"/>
      <point x="-119" y="-282" type="curve"/>
      <point x="-159" y="-301"/>
      <point x="-248" y="-377"/>
      <point x="-248" y="-400" type="curve" smooth="yes"/>
      <point x="-248" y="-420"/>
      <point x="-162" y="-471"/>
      <point x="-80" y="-471" type="curve" smooth="yes"/>
      <point x="-24" y="-471"/>
      <point x="63" y="-434"/>
      <point x="132" y="-380" type="curve" smooth="yes"/>
      <point x="233" y="-302"/>
      <point x="326" y="-198"/>
      <point x="326" y="93" type="curve" smooth="yes"/>
      <point x="326" y="783" type="line"/>
      <point x="424" y="783"/>
      <point x="471" y="765"/>
      <point x="500" y="750" type="curve"/>
      <point x="526" y="762"/>
      <point x="572" y="815"/>
      <point x="594" y="850" type="curve"/>
      <point x="566" y="880" type="line"/>
      <point x="326" y="880" type="line"/>
      <point x="326" y="955" type="line" smooth="yes"/>
      <point x="326" y="1262"/>
      <point x="407" y="1342"/>
      <point x="476" y="1342" type="curve" smooth="yes"/>
      <point x="508" y="1342"/>
      <point x="574" y="1314"/>
      <point x="635" y="1255" type="curve"/>
      <point x="672" y="1273"/>
      <point x="764" y="1349"/>
    </contour>
  </outline>
</glyph>
<glyph name="breve" format="2">
  <advance width="688"/>
  <unicode hex="02D8"/>
  <anchor x="344" y="1296" name="U"/>
  <outline>
    <contour>
      <point x="656" y="1288" type="curve"/>
      <point x="641" y="1311"/>
      <point x="622" y="1327"/>
      <point x="601" y="1337" type="curve"/>
      <point x="540" y="1200"/>
      <point x="430" y="1150"/>
      <point x="342" y="1150" type="curve" smooth="yes"/>
      <point x="259" y="1150"/>
      <point x="149" y="1200"/>
      <point x="87" y="1337" type="curve"/>
      <point x="67" y="1327"/>
      <point x="47" y="1311"/>
      <point x="32" y="1288" type="curve"/>
      <point x="107" y="1085"/>
      <point x="219" y="1010"/>
      <point x="346" y="1010" type="curve" smooth="yes"/>
      <point x="462" y="1010"/>
      <point x="581" y="1085"/>
    </contour>
  </outline>
</glyph>
<glyph name="ogonek" format="2">
  <advance width="500"/>
  <unicode hex="02DB"/>
  <anchor x="273" y="-568" name="L"/>
  <outline>
    <contour>
      <point x="465" y="-283" type="curve"/>
      <point x="441" y="-240" type="line"/>
      <point x="388" y="-289"/>
      <point x="342" y="-308"/>
      <point x="311" y="-308" type="curve" smooth="yes"/>
      <point x="265" y="-308"/>
      <point x="233" y="-287"/>
      <point x="233" y="-240" type="curve" smooth="yes"/>
      <point x="233" y="-181"/>
      <point x="263" y="-88"/>
      <point x="429" y="23" type="curve"/>
      <point x="378" y="41" type="line"/>
      <point x="187" y="-61"/>
      <point x="85" y="-170"/>
      <point x="85" y="-283" type="curve" smooth="yes"/>
      <point x="85" y="-394"/>
      <point x="165" y="-420"/>
      <point x="237" y="-420" type="curve" smooth="yes"/>
      <point x="310" y="-420"/>
      <point x="410" y="-351"/>
    </contour>
  </outline>
</glyph>
<glyph name="tilde" format="2">
  <advance width="774"/>
  <unicode hex="02DC"/>
  <outline>
    <contour>
      <point x="720" y="1281" type="curve"/>
      <point x="664" y="1305" type="line"/>
      <point x="621" y="1231"/>
      <point x="577" y="1190"/>
      <point x="528" y="1190" type="curve" smooth="yes"/>
      <point x="462" y="1190"/>
      <point x="384" y="1295"/>
      <point x="284" y="1295" type="curve" smooth="yes"/>
      <point x="182" y="1295"/>
      <point x="99" y="1170"/>
      <point x="54" y="1067" type="curve"/>
      <point x="110" y="1046" type="line"/>
      <point x="156" y="1116"/>
      <point x="192" y="1160"/>
      <point x="244" y="1160" type="curve" smooth="yes"/>
      <point x="322" y="1160"/>
      <point x="397" y="1055"/>
      <point x="489" y="1055" type="curve" smooth="yes"/>
      <point x="591" y="1055"/>
      <point x="676" y="1179"/>
    </contour>
  </outline>
</glyph>
<glyph name="Omega" format="2">
  <advance width="1321"/>
  <unicode hex="03A9"/>
  <anchor x="65" y="1260" name="G"/>
  <anchor x="650" y="-100" name="L"/>
  <outline>
    <contour>
      <point x="1194" y="762" type="curve" smooth="yes"/>
      <point x="1194" y="1087"/>
      <point x="988" y="1290"/>
      <point x="683" y="1290" type="curve" smooth="yes"/>
      <point x="311" y="1290"/>
      <point x="110" y="1001"/>
      <point x="110" y="739" type="curve" smooth="yes"/>
      <point x="110" y="508"/>
      <point x="217" y="304"/>
      <point x="579" y="46" type="curve"/>
      <point x="590" y="126" type="line"/>
      <point x="333" y="429"/>
      <point x="296" y="524"/>
      <point x="296" y="754" type="curve" smooth="yes"/>
      <point x="296" y="903"/>
      <point x="391" y="1192"/>
      <point x="650" y="1192" type="curve" smooth="yes"/>
      <point x="881" y="1192"/>
      <point x="1008" y="985"/>
      <point x="1008" y="743" type="curve" smooth="yes"/>
      <point x="1008" y="524"/>
      <point x="938" y="429"/>
      <point x="711" y="126" type="curve"/>
      <point x="721" y="46" type="line"/>
      <point x="1030" y="316"/>
      <point x="1194" y="510"/>
    </contour>
    <contour>
      <point x="1205" y="281" type="curve"/>
      <point x="1152" y="300" type="line"/>
      <point x="1105" y="173"/>
      <point x="1094" y="126"/>
      <point x="1039" y="126" type="curve" smooth="yes"/>
      <point x="711" y="126" type="line"/>
      <point x="711" y="0" type="line"/>
      <point x="1171" y="0" type="line"/>
      <point x="1185" y="70"/>
      <point x="1199" y="203"/>
    </contour>
    <contour>
      <point x="109" y="0" type="line"/>
      <point x="590" y="0" type="line"/>
      <point x="590" y="126" type="line"/>
      <point x="257" y="126" type="line" smooth="yes"/>
      <point x="200" y="126"/>
      <point x="183" y="183"/>
      <point x="161" y="296" type="curve"/>
      <point x="108" y="296" type="line"/>
      <point x="89" y="212"/>
      <point x="78" y="94"/>
      <point x="76" y="29" type="curve"/>
    </contour>
  </outline>
</glyph>
<glyph name="na-limb" format="2">
  <advance width="995"/>
  <unicode hex="190F"/>
  <anchor x="515" y="1050" name="K"/>
  <anchor x="480" y="-100" name="L"/>
  <anchor x="778" y="1050" name="O"/>
  <anchor x="497" y="1050" name="U"/>
  <anchor x="920" y="50" name="V"/>
  <outline>
    <component base="ka-limb"/>
    <contour>
      <point x="382" y="443" type="line"/>
      <point x="404" y="413" type="line"/>
      <point x="856" y="413" type="line"/>
      <point x="882" y="436"/>
      <point x="906" y="469"/>
      <point x="921" y="494" type="curve"/>
      <point x="889" y="538" type="line"/>
      <point x="546" y="538" type="line"/>
    </contour>
  </outline>
</glyph>
<glyph name="ba-limb" format="2">
  <advance width="1077"/>
  <unicode hex="1912"/>
  <anchor x="580" y="1050" name="K"/>
  <anchor x="538" y="-100" name="L"/>
  <anchor x="782" y="1050" name="O"/>
  <anchor x="538" y="1050" name="U"/>
  <anchor x="949" y="50" name="V"/>
  <outline>
    <contour>
      <point x="139" y="970" type="line"/>
      <point x="109" y="949"/>
      <point x="73" y="915"/>
      <point x="50" y="885" type="curve"/>
      <point x="79" y="845" type="line"/>
      <point x="939" y="845" type="line"/>
      <point x="988" y="870"/>
      <point x="1013" y="894"/>
      <point x="1047" y="930" type="curve"/>
      <point x="1022" y="970" type="line"/>
    </contour>
    <contour>
      <point x="504" y="904" type="line"/>
      <point x="287" y="848"/>
      <point x="87" y="581"/>
      <point x="90" y="372" type="curve" smooth="yes"/>
      <point x="93" y="97"/>
      <point x="309" y="-34"/>
      <point x="526" y="-34" type="curve" smooth="yes"/>
      <point x="834" y="-34"/>
      <point x="1016" y="156"/>
      <point x="1016" y="300" type="curve" smooth="yes"/>
      <point x="1016" y="431"/>
      <point x="947" y="512"/>
      <point x="823" y="512" type="curve" smooth="yes"/>
      <point x="669" y="512"/>
      <point x="502" y="364"/>
      <point x="502" y="220" type="curve" smooth="yes"/>
      <point x="502" y="152"/>
      <point x="528" y="89"/>
      <point x="594" y="71" type="curve"/>
      <point x="663" y="90"/>
      <point x="731" y="110"/>
      <point x="800" y="129" type="curve"/>
      <point x="683" y="126"/>
      <point x="636" y="167"/>
      <point x="637" y="283" type="curve" smooth="yes"/>
      <point x="638" y="346"/>
      <point x="686" y="384"/>
      <point x="764" y="383" type="curve" smooth="yes"/>
      <point x="854" y="382"/>
      <point x="880" y="307"/>
      <point x="880" y="233" type="curve" smooth="yes"/>
      <point x="880" y="149"/>
      <point x="748" y="96"/>
      <point x="584" y="96" type="curve" smooth="yes"/>
      <point x="442" y="96"/>
      <point x="237" y="186"/>
      <point x="233" y="422" type="curve"/>
      <point x="230" y="670"/>
      <point x="450" y="848"/>
      <point x="672" y="892" type="curve"/>
    </contour>
  </outline>
</glyph>
<glyph name="aikar-limb" format="2">
  <advance width="1070"/>
  <unicode hex="1924"/>
  <outline>
    <component base="eekar-limb"/>
    <contour>
      <point x="860" y="771" type="curve"/>
      <point x="839" y="625" type="line"/>
      <point x="767" y="441"/>
      <point x="630" y="236"/>
      <point x="287" y="20" type="curve"/>
      <point x="298" y="2"/>
      <point x="315" y="-21"/>
      <point x="332" y="-34" type="curve"/>
      <point x="630" y="98"/>
      <point x="1010" y="493"/>
      <point x="1010" y="796" type="curve" smooth="yes"/>
      <point x="1010" y="880"/>
      <point x="964" y="985"/>
      <point x="856" y="985" type="curve" smooth="yes"/>
      <point x="706" y="985"/>
      <point x="557" y="827"/>
      <point x="557" y="708" type="curve" smooth="yes"/>
      <point x="557" y="619"/>
      <point x="611" y="569"/>
      <point x="701" y="569" type="curve" smooth="yes"/>
      <point x="751" y="569"/>
      <point x="808" y="581"/>
      <point x="867" y="647" type="curve"/>
      <point x="860" y="771" type="line"/>
      <point x="860" y="731"/>
      <point x="798" y="685"/>
      <point x="762" y="685" type="curve" smooth="yes"/>
      <point x="718" y="685"/>
      <point x="685" y="708"/>
      <point x="685" y="752" type="curve" smooth="yes"/>
      <point x="685" y="804"/>
      <point x="733" y="865"/>
      <point x="783" y="865" type="curve" smooth="yes"/>
      <point x="835" y="865"/>
      <point x="860" y="822"/>
    </contour>
  </outline>
</glyph>
<glyph name="ekar-limb" format="2">
  <unicode hex="1927"/>
  <anchor x="-300" y="1250" name="K"/>
  <anchor x="-300" y="1050" name="_O"/>
  <outline>
    <contour>
      <point x="-809" y="1372" type="curve"/>
      <point x="-732" y="1288"/>
      <point x="-529" y="1123"/>
      <point x="-375" y="1054" type="curve"/>
      <point x="-344" y="1076"/>
      <point x="-335" y="1092"/>
      <point x="-315" y="1110" type="curve"/>
      <point x="-432" y="1206"/>
      <point x="-611" y="1378"/>
      <point x="-683" y="1463" type="curve"/>
      <point x="-729" y="1441"/>
      <point x="-779" y="1406"/>
    </contour>
  </outline>
</glyph>
<glyph name="eight-limb" format="2">
  <advance width="850"/>
  <unicode hex="194E"/>
  <outline>
    <contour>
      <point x="800" y="965" type="curve"/>
      <point x="766" y="1000" type="line"/>
      <point x="719" y="981"/>
      <point x="688" y="964"/>
      <point x="652" y="941" type="curve"/>
      <point x="611" y="761"/>
      <point x="506" y="349"/>
      <point x="445" y="200" type="curve"/>
      <point x="464" y="192" type="line"/>
      <point x="402" y="415"/>
      <point x="299" y="733"/>
      <point x="201" y="980" type="curve"/>
      <point x="194" y="984"/>
      <point x="178" y="996"/>
      <point x="165" y="1000" type="curve"/>
      <point x="118" y="971"/>
      <point x="81" y="941"/>
      <point x="50" y="913" type="curve"/>
      <point x="166" y="628"/>
      <point x="291" y="238"/>
      <point x="355" y="0" type="curve"/>
      <point x="396" y="-34" type="line"/>
      <point x="443" y="-4"/>
      <point x="475" y="20"/>
      <point x="514" y="58" type="curve"/>
      <point x="580" y="324"/>
      <point x="681" y="676"/>
    </contour>
  </outline>
</glyph>
<glyph name="nine-limb" format="2">
  <advance width="850"/>
  <unicode hex="194F"/>
  <outline>
    <contour>
      <point x="172" y="970" type="curve"/>
      <point x="118" y="932"/>
      <point x="71" y="881"/>
      <point x="40" y="845" type="curve"/>
      <point x="118" y="664"/>
      <point x="180" y="496"/>
      <point x="237" y="337" type="curve"/>
      <point x="273" y="306" type="line"/>
      <point x="309" y="323"/>
      <point x="335" y="348"/>
      <point x="358" y="369" type="curve"/>
      <point x="407" y="528"/>
      <point x="469" y="690"/>
      <point x="527" y="860" type="curve"/>
      <point x="428" y="866" type="line"/>
      <point x="388" y="740"/>
      <point x="335" y="580"/>
      <point x="306" y="481" type="curve"/>
      <point x="324" y="489" type="line"/>
      <point x="300" y="557"/>
      <point x="194" y="810"/>
      <point x="159" y="877" type="curve"/>
      <point x="137" y="855" type="line"/>
      <point x="283" y="855"/>
      <point x="559" y="855"/>
      <point x="693" y="855" type="curve"/>
      <point x="673" y="893" type="line"/>
      <point x="587" y="594"/>
      <point x="476" y="288"/>
      <point x="351" y="0" type="curve"/>
      <point x="391" y="-34" type="line"/>
      <point x="434" y="-8"/>
      <point x="474" y="15"/>
      <point x="513" y="58" type="curve"/>
      <point x="612" y="421"/>
      <point x="705" y="684"/>
      <point x="810" y="932" type="curve"/>
      <point x="785" y="970" type="line"/>
      <point x="588" y="970"/>
      <point x="373" y="970"/>
    </contour>
  </outline>
</glyph>
<glyph name="perthousand" format="2">
  <advance width="1978"/>
  <unicode hex="2030"/>
  <outline>
    <contour>
      <point x="1911" y="292" type="curve"/>
      <point x="1911" y="469"/>
      <point x="1808" y="613"/>
      <point x="1649" y="613" type="curve" smooth="yes"/>
      <point x="1495" y="613"/>
      <point x="1366" y="467"/>
      <point x="1366" y="292" type="curve" smooth="yes"/>
      <point x="1366" y="118"/>
      <point x="1471" y="-29"/>
      <point x="1628" y="-29" type="curve" smooth="yes"/>
      <point x="1783" y="-29"/>
      <point x="1911" y="118"/>
    </contour>
    <contour>
      <point x="1280" y="292" type="curve"/>
      <point x="1280" y="469"/>
      <point x="1179" y="613"/>
      <point x="1020" y="613" type="curve" smooth="yes"/>
      <point x="864" y="613"/>
      <point x="737" y="467"/>
      <point x="737" y="292" type="curve" smooth="yes"/>
      <point x="737" y="118"/>
      <point x="842" y="-29"/>
      <point x="997" y="-29" type="curve" smooth="yes"/>
      <point x="1152" y="-29"/>
      <point x="1280" y="118"/>
    </contour>
    <contour>
      <point x="341" y="12" type="curve"/>
      <point x="1159" y="1140" type="line"/>
      <point x="1133" y="1170" type="line"/>
      <point x="1096" y="1161"/>
      <point x="1037" y="1146"/>
      <point x="1006" y="1127" type="curve"/>
      <point x="188" y="0" type="line"/>
      <point x="212" y="-32" type="line"/>
      <point x="243" y="-23"/>
      <point x="318" y="-4"/>
    </contour>
    <contour>
      <point x="613" y="849" type="curve"/>
      <point x="613" y="1025"/>
      <point x="509" y="1169"/>
      <point x="351" y="1169" type="curve" smooth="yes"/>
      <point x="195" y="1169"/>
      <point x="68" y="1023"/>
      <point x="68" y="849" type="curve" smooth="yes"/>
      <point x="68" y="674"/>
      <point x="173" y="527"/>
      <point x="328" y="527" type="curve" smooth="yes"/>
      <point x="485" y="527"/>
      <point x="613" y="674"/>
    </contour>
    <contour>
      <point x="1760" y="273" type="curve"/>
      <point x="1760" y="121"/>
      <point x="1711" y="46"/>
      <point x="1649" y="46" type="curve" smooth="yes"/>
      <point x="1571" y="46"/>
      <point x="1517" y="131"/>
      <point x="1517" y="314" type="curve" smooth="yes"/>
      <point x="1517" y="467"/>
      <point x="1570" y="537"/>
      <point x="1628" y="537" type="curve" smooth="yes"/>
      <point x="1698" y="537"/>
      <point x="1760" y="453"/>
    </contour>
    <contour>
      <point x="1130" y="273" type="curve"/>
      <point x="1130" y="121"/>
      <point x="1082" y="46"/>
      <point x="1020" y="46" type="curve" smooth="yes"/>
      <point x="941" y="46"/>
      <point x="887" y="131"/>
      <point x="887" y="314" type="curve" smooth="yes"/>
      <point x="887" y="467"/>
      <point x="940" y="537"/>
      <point x="997" y="537" type="curve" smooth="yes"/>
      <point x="1068" y="537"/>
      <point x="1130" y="453"/>
    </contour>
    <contour>
      <point x="462" y="830" type="curve"/>
      <point x="462" y="677"/>
      <point x="412" y="603"/>
      <point x="351" y="603" type="curve" smooth="yes"/>
      <point x="272" y="603"/>
      <point x="218" y="687"/>
      <point x="218" y="870" type="curve" smooth="yes"/>
      <point x="218" y="1024"/>
      <point x="271" y="1094"/>
      <point x="328" y="1094" type="curve" smooth="yes"/>
      <point x="399" y="1094"/>
      <point x="462" y="1010"/>
    </contour>
  </outline>
</glyph>
<glyph name="guilsinglleft" format="2">
  <advance width="551"/>
  <unicode hex="2039"/>
  <outline>
    <contour>
      <point x="404" y="2" type="line"/>
      <point x="448" y="34" type="line"/>
      <point x="236" y="412" type="line"/>
      <point x="447" y="785" type="line"/>
      <point x="404" y="817" type="line"/>
      <point x="55" y="446" type="line"/>
      <point x="52" y="423"/>
      <point x="52" y="400"/>
      <point x="53" y="377" type="curve"/>
    </contour>
  </outline>
</glyph>
<glyph name="foursuperior" format="2">
  <advance width="647"/>
  <unicode hex="2074"/>
  <anchor x="370" y="515" name="L"/>
  <anchor x="370" y="1366" name="U"/>
  <outline>
    <contour>
      <point x="589" y="836" type="curve"/>
      <point x="573" y="854" type="line"/>
      <point x="499" y="854" type="line"/>
      <point x="499" y="1272" type="line"/>
      <point x="473" y="1293" type="line"/>
      <point x="443" y="1282"/>
      <point x="393" y="1266"/>
      <point x="356" y="1252" type="curve"/>
      <point x="31" y="799" type="line"/>
      <point x="54" y="780" type="line"/>
      <point x="376" y="780" type="line"/>
      <point x="376" y="664" type="line" smooth="yes"/>
      <point x="376" y="651"/>
      <point x="359" y="639"/>
      <point x="245" y="623" type="curve"/>
      <point x="245" y="587" type="line"/>
      <point x="582" y="587" type="line"/>
      <point x="582" y="623" type="line"/>
      <point x="510" y="638"/>
      <point x="499" y="646"/>
      <point x="499" y="657" type="curve" smooth="yes"/>
      <point x="499" y="780" type="line"/>
      <point x="533" y="780" type="line"/>
      <point x="553" y="793"/>
      <point x="571" y="812"/>
    </contour>
    <contour>
      <point x="376" y="1160" type="line"/>
      <point x="376" y="854" type="line"/>
      <point x="148" y="854" type="line"/>
    </contour>
  </outline>
</glyph>
<glyph name="rupee" format="2">
  <advance width="1272"/>
  <unicode hex="20A8"/>
  <outline>
    <contour>
      <point x="946" y="-28" type="curve" smooth="yes"/>
      <point x="1010" y="-28"/>
      <point x="1220" y="-6"/>
      <point x="1220" y="204" type="curve" smooth="yes"/>
      <point x="1220" y="316"/>
      <point x="1125" y="366"/>
      <point x="1039" y="411" type="curve"/>
      <point x="952" y="457"/>
      <point x="874" y="490"/>
      <point x="874" y="554" type="curve" smooth="yes"/>
      <point x="874" y="595"/>
      <point x="913" y="639"/>
      <point x="976" y="639" type="curve" smooth="yes"/>
      <point x="1028" y="639"/>
      <point x="1080" y="607"/>
      <point x="1121" y="533" type="curve"/>
      <point x="1155" y="527" type="line"/>
      <point x="1170" y="547"/>
      <point x="1206" y="640"/>
      <point x="1194" y="652" type="curve" smooth="yes"/>
      <point x="1153" y="687"/>
      <point x="1062" y="710"/>
      <point x="994" y="710" type="curve" smooth="yes"/>
      <point x="876" y="710"/>
      <point x="765" y="638"/>
      <point x="765" y="514" type="curve" smooth="yes"/>
      <point x="765" y="419"/>
      <point x="846" y="368"/>
      <point x="929" y="325" type="curve" smooth="yes"/>
      <point x="1019" y="278"/>
      <point x="1110" y="238"/>
      <point x="1110" y="158" type="curve" smooth="yes"/>
      <point x="1110" y="91"/>
      <point x="1058" y="47"/>
      <point x="976" y="47" type="curve" smooth="yes"/>
      <point x="913" y="47"/>
      <point x="849" y="64"/>
      <point x="808" y="127" type="curve" smooth="yes"/>
      <point x="530" y="550" type="line"/>
      <point x="688" y="590"/>
      <point x="799" y="707"/>
      <point x="799" y="891" type="curve" smooth="yes"/>
      <point x="799" y="1048"/>
      <point x="674" y="1168"/>
      <point x="411" y="1168" type="curve" smooth="yes"/>
      <point x="261" y="1168"/>
      <point x="144" y="1141"/>
      <point x="37" y="1112" type="curve"/>
      <point x="44" y="1049" type="line"/>
      <point x="84" y="1055"/>
      <point x="125" y="1061"/>
      <point x="164" y="1067" type="curve"/>
      <point x="164" y="102" type="line" smooth="yes"/>
      <point x="164" y="86"/>
      <point x="121" y="63"/>
      <point x="45" y="46" type="curve"/>
      <point x="45" y="0" type="line"/>
      <point x="437" y="0" type="line"/>
      <point x="437" y="46" type="line"/>
      <point x="348" y="64"/>
      <point x="312" y="87"/>
      <point x="312" y="102" type="curve" smooth="yes"/>
      <point x="312" y="541" type="line"/>
      <point x="339" y="536"/>
      <point x="366" y="534"/>
      <point x="406" y="534" type="curve"/>
      <point x="678" y="37" type="line" smooth="yes"/>
      <point x="706" y="-14"/>
      <point x="888" y="-28"/>
    </contour>
    <contour>
      <point x="381" y="619" type="curve" smooth="yes"/>
      <point x="358" y="619"/>
      <point x="339" y="620"/>
      <point x="312" y="624" type="curve"/>
      <point x="312" y="1083" type="line"/>
      <point x="335" y="1084"/>
      <point x="357" y="1085"/>
      <point x="379" y="1085" type="curve"/>
      <point x="569" y="1085"/>
      <point x="651" y="990"/>
      <point x="651" y="864" type="curve" smooth="yes"/>
      <point x="651" y="706"/>
      <point x="556" y="619"/>
    </contour>
  </outline>
</glyph>
<glyph name="Euro" format="2">
  <advance width="923"/>
  <unicode hex="20AC"/>
  <outline>
    <contour>
      <point x="884" y="194" type="curve"/>
      <point x="874" y="205"/>
      <point x="859" y="234"/>
      <point x="845" y="242" type="curve"/>
      <point x="717" y="126"/>
      <point x="651" y="91"/>
      <point x="577" y="91" type="curve" smooth="yes"/>
      <point x="435" y="91"/>
      <point x="294" y="210"/>
      <point x="294" y="566" type="curve" smooth="yes"/>
      <point x="294" y="975"/>
      <point x="429" y="1059"/>
      <point x="528" y="1059" type="curve" smooth="yes"/>
      <point x="635" y="1059"/>
      <point x="682" y="1014"/>
      <point x="743" y="946" type="curve"/>
      <point x="783" y="938" type="line"/>
      <point x="813" y="968"/>
      <point x="886" y="1062"/>
      <point x="872" y="1074" type="curve" smooth="yes"/>
      <point x="807" y="1126"/>
      <point x="729" y="1168"/>
      <point x="604" y="1168" type="curve" smooth="yes"/>
      <point x="315" y="1168"/>
      <point x="125" y="955"/>
      <point x="125" y="536" type="curve" smooth="yes"/>
      <point x="125" y="151"/>
      <point x="301" y="-28"/>
      <point x="510" y="-28" type="curve" smooth="yes"/>
      <point x="643" y="-28"/>
      <point x="734" y="22"/>
    </contour>
    <contour>
      <point x="603" y="434" type="line"/>
      <point x="628" y="503" type="line"/>
      <point x="603" y="527" type="line"/>
      <point x="45" y="527" type="line"/>
      <point x="38" y="507"/>
      <point x="28" y="479"/>
      <point x="23" y="460" type="curve"/>
      <point x="45" y="434" type="line"/>
    </contour>
    <contour>
      <point x="638" y="646" type="line"/>
      <point x="664" y="715" type="line"/>
      <point x="638" y="739" type="line"/>
      <point x="73" y="739" type="line"/>
      <point x="66" y="719"/>
      <point x="56" y="691"/>
      <point x="51" y="672" type="curve"/>
      <point x="73" y="646" type="line"/>
    </contour>
  </outline>
</glyph>
<glyph name="trademark" format="2">
  <advance width="1099"/>
  <unicode hex="2122"/>
  <outline>
    <contour>
      <point x="1036" y="1165" type="curve"/>
      <point x="1036" y="1192" type="line"/>
      <point x="923" y="1192" type="line" smooth="yes"/>
      <point x="913" y="1192"/>
      <point x="910" y="1189"/>
      <point x="898" y="1163" type="curve"/>
      <point x="762" y="873" type="line"/>
      <point x="621" y="1163" type="line" smooth="yes"/>
      <point x="609" y="1187"/>
      <point x="606" y="1192"/>
      <point x="597" y="1192" type="curve" smooth="yes"/>
      <point x="482" y="1192" type="line"/>
      <point x="482" y="1165" type="line"/>
      <point x="496" y="1165"/>
      <point x="514" y="1165"/>
      <point x="531" y="1157" type="curve"/>
      <point x="528" y="811" type="line" smooth="yes"/>
      <point x="528" y="805"/>
      <point x="512" y="796"/>
      <point x="478" y="789" type="curve"/>
      <point x="478" y="763" type="line"/>
      <point x="628" y="763" type="line"/>
      <point x="628" y="789" type="line"/>
      <point x="593" y="796"/>
      <point x="579" y="805"/>
      <point x="579" y="811" type="curve" smooth="yes"/>
      <point x="582" y="1091" type="line"/>
      <point x="737" y="763" type="line"/>
      <point x="767" y="763" type="line"/>
      <point x="919" y="1093" type="line"/>
      <point x="923" y="811" type="line" smooth="yes"/>
      <point x="923" y="805"/>
      <point x="903" y="796"/>
      <point x="870" y="789" type="curve"/>
      <point x="870" y="763" type="line"/>
      <point x="1045" y="763" type="line"/>
      <point x="1045" y="789" type="line"/>
      <point x="1010" y="796"/>
      <point x="995" y="805"/>
      <point x="995" y="811" type="curve" smooth="yes"/>
      <point x="991" y="1158" type="line"/>
      <point x="1006" y="1163"/>
      <point x="1023" y="1165"/>
    </contour>
    <contour>
      <point x="163" y="763" type="line"/>
      <point x="352" y="763" type="line"/>
      <point x="352" y="789" type="line"/>
      <point x="306" y="799"/>
      <point x="295" y="809"/>
      <point x="295" y="815" type="curve" smooth="yes"/>
      <point x="295" y="1150" type="line"/>
      <point x="393" y="1150" type="line" smooth="yes"/>
      <point x="413" y="1150"/>
      <point x="417" y="1127"/>
      <point x="426" y="1088" type="curve"/>
      <point x="446" y="1088" type="line"/>
      <point x="453" y="1109"/>
      <point x="456" y="1160"/>
      <point x="458" y="1182" type="curve"/>
      <point x="446" y="1192" type="line"/>
      <point x="67" y="1192" type="line"/>
      <point x="61" y="1173"/>
      <point x="54" y="1114"/>
      <point x="54" y="1094" type="curve"/>
      <point x="74" y="1087" type="line"/>
      <point x="96" y="1139"/>
      <point x="102" y="1150"/>
      <point x="118" y="1150" type="curve" smooth="yes"/>
      <point x="219" y="1150" type="line"/>
      <point x="219" y="815" type="line" smooth="yes"/>
      <point x="219" y="807"/>
      <point x="208" y="799"/>
      <point x="163" y="789" type="curve"/>
    </contour>
  </outline>
</glyph>
<glyph name="minus" format="2">
  <advance width="796"/>
  <unicode hex="2212"/>
  <outline>
    <contour>
      <point x="738" y="564" type="curve"/>
      <point x="714" y="588" type="line"/>
      <point x="90" y="588" type="line"/>
      <point x="79" y="564"/>
      <point x="64" y="527"/>
      <point x="57" y="500" type="curve"/>
      <point x="83" y="476" type="line"/>
      <point x="707" y="476" type="line"/>
      <point x="716" y="497"/>
      <point x="733" y="538"/>
    </contour>
  </outline>
</glyph>
<glyph name="radical" format="2">
  <advance width="1098"/>
  <unicode hex="221A"/>
  <outline>
    <contour>
      <point x="1098" y="1230" type="curve"/>
      <point x="1072" y="1256" type="line"/>
      <point x="854" y="1256" type="line"/>
      <point x="566" y="190" type="line"/>
      <point x="270" y="822" type="line"/>
      <point x="33" y="821" type="line"/>
      <point x="22" y="795"/>
      <point x="7" y="756"/>
      <point x="0" y="731" type="curve"/>
      <point x="25" y="703" type="line"/>
      <point x="152" y="703" type="line"/>
      <point x="491" y="-28" type="line"/>
      <point x="524" y="-21"/>
      <point x="616" y="6"/>
      <point x="637" y="62" type="curve"/>
      <point x="920" y="1136" type="line"/>
      <point x="1068" y="1136" type="line"/>
      <point x="1075" y="1159"/>
      <point x="1091" y="1204"/>
    </contour>
  </outline>
</glyph>
<glyph name="fi" format="2">
  <advance width="1150"/>
  <unicode hex="FB01"/>
  <anchor x="866" y="-95" name="L"/>
  <anchor x="1108" y="851" name="R"/>
  <anchor x="866" y="1533" name="U"/>
  <outline>
    <contour>
      <point x="786" y="1375" type="curve"/>
      <point x="786" y="1397"/>
      <point x="683" y="1466"/>
      <point x="597" y="1466" type="curve" smooth="yes"/>
      <point x="542" y="1466"/>
      <point x="439" y="1432"/>
      <point x="365" y="1368" type="curve" smooth="yes"/>
      <point x="265" y="1283"/>
      <point x="186" y="1183"/>
      <point x="186" y="909" type="curve" smooth="yes"/>
      <point x="186" y="880" type="line"/>
      <point x="115" y="880" type="line"/>
      <point x="42" y="811" type="line"/>
      <point x="64" y="782" type="line"/>
      <point x="186" y="782" type="line"/>
      <point x="186" y="104" type="line" smooth="yes"/>
      <point x="186" y="89"/>
      <point x="142" y="63"/>
      <point x="56" y="48" type="curve"/>
      <point x="56" y="0" type="line"/>
      <point x="543" y="0" type="line"/>
      <point x="543" y="48" type="line"/>
      <point x="396" y="76"/>
      <point x="349" y="89"/>
      <point x="349" y="104" type="curve" smooth="yes"/>
      <point x="349" y="782" type="line"/>
      <point x="449" y="782"/>
      <point x="497" y="764"/>
      <point x="526" y="749" type="curve"/>
      <point x="548" y="762"/>
      <point x="594" y="814"/>
      <point x="618" y="850" type="curve"/>
      <point x="589" y="880" type="line"/>
      <point x="349" y="880" type="line"/>
      <point x="349" y="961" type="line" smooth="yes"/>
      <point x="349" y="1268"/>
      <point x="434" y="1340"/>
      <point x="499" y="1340" type="curve" smooth="yes"/>
      <point x="533" y="1340"/>
      <point x="599" y="1314"/>
      <point x="658" y="1255" type="curve"/>
      <point x="694" y="1273"/>
      <point x="786" y="1349"/>
    </contour>
    <contour>
      <point x="1000" y="1193" type="curve" smooth="yes"/>
      <point x="1000" y="1255"/>
      <point x="964" y="1287"/>
      <point x="907" y="1287" type="curve" smooth="yes"/>
      <point x="841" y="1287"/>
      <point x="786" y="1230"/>
      <point x="786" y="1154" type="curve" smooth="yes"/>
      <point x="786" y="1093"/>
      <point x="819" y="1060"/>
      <point x="878" y="1060" type="curve" smooth="yes"/>
      <point x="947" y="1060"/>
      <point x="1000" y="1118"/>
    </contour>
    <contour>
      <point x="678" y="0" type="line"/>
      <point x="1099" y="0" type="line"/>
      <point x="1099" y="48" type="line"/>
      <point x="1008" y="65"/>
      <point x="970" y="91"/>
      <point x="970" y="106" type="curve" smooth="yes"/>
      <point x="970" y="908" type="line"/>
      <point x="931" y="908" type="line"/>
      <point x="861" y="877"/>
      <point x="764" y="850"/>
      <point x="678" y="834" type="curve"/>
      <point x="678" y="789" type="line"/>
      <point x="806" y="777"/>
      <point x="807" y="758"/>
      <point x="807" y="628" type="curve" smooth="yes"/>
      <point x="807" y="106" type="line" smooth="yes"/>
      <point x="807" y="89"/>
      <point x="762" y="65"/>
      <point x="678" y="48" type="curve"/>
    </contour>
  </outline>
</glyph>
<glyph name="akar-limb.widC" format="2">
  <anchor x="-320" y="1250" name="U"/>
  <anchor x="-560" y="1050" name="_U"/>
  <outline>
    <contour>
      <point x="-811" y="1215" type="curve"/>
      <point x="-707" y="1207" type="line"/>
      <point x="-645" y="1251"/>
      <point x="-619" y="1298"/>
      <point x="-619" y="1342" type="curve" smooth="yes"/>
      <point x="-619" y="1416"/>
      <point x="-676" y="1455"/>
      <point x="-738" y="1455" type="curve" smooth="yes"/>
      <point x="-875" y="1455"/>
      <point x="-990" y="1361"/>
      <point x="-990" y="1232" type="curve" smooth="yes"/>
      <point x="-990" y="1167"/>
      <point x="-939" y="1095"/>
      <point x="-827" y="1095" type="curve" smooth="yes"/>
      <point x="-156" y="1095" type="line"/>
      <point x="-108" y="1120"/>
      <point x="-85" y="1144"/>
      <point x="-50" y="1180" type="curve"/>
      <point x="-74" y="1220" type="line"/>
      <point x="-784" y="1220" type="line"/>
      <point x="-834" y="1201"/>
      <point x="-881" y="1237"/>
      <point x="-881" y="1285" type="curve" smooth="yes"/>
      <point x="-881" y="1324"/>
      <point x="-846" y="1370"/>
      <point x="-808" y="1370" type="curve" smooth="yes"/>
      <point x="-766" y="1370"/>
      <point x="-738" y="1345"/>
      <point x="-738" y="1300" type="curve" smooth="yes"/>
      <point x="-738" y="1256"/>
      <point x="-772" y="1215"/>
    </contour>
  </outline>
</glyph>
<glyph name="dha_subra_ukar-limb" format="2">
  <advance width="1020"/>
  <anchor x="530" y="1050" name="K"/>
  <outline>
    <contour>
      <point x="109" y="970" type="line"/>
      <point x="79" y="949"/>
      <point x="43" y="915"/>
      <point x="20" y="885" type="curve"/>
      <point x="49" y="845" type="line"/>
      <point x="622" y="845" type="line"/>
      <point x="671" y="870"/>
      <point x="695" y="894"/>
      <point x="731" y="930" type="curve"/>
      <point x="705" y="970" type="line"/>
    </contour>
    <contour>
      <point x="246" y="860" type="line"/>
      <point x="153" y="809"/>
      <point x="103" y="721"/>
      <point x="103" y="648" type="curve" smooth="yes"/>
      <point x="103" y="528"/>
      <point x="215" y="446"/>
      <point x="335" y="446" type="curve" smooth="yes"/>
      <point x="409" y="446"/>
      <point x="514" y="468"/>
      <point x="619" y="550" type="curve"/>
      <point x="587" y="590" type="line"/>
      <point x="524" y="580"/>
      <point x="483" y="576"/>
      <point x="430" y="576" type="curve" smooth="yes"/>
      <point x="341" y="576"/>
      <point x="242" y="620"/>
      <point x="244" y="707" type="curve" smooth="yes"/>
      <point x="245" y="761"/>
      <point x="277" y="807"/>
      <point x="377" y="865" type="curve"/>
    </contour>
    <contour>
      <point x="779" y="161" type="line"/>
      <point x="756" y="-233"/>
      <point x="562" y="-407"/>
      <point x="383" y="-407" type="curve" smooth="yes"/>
      <point x="273" y="-407"/>
      <point x="244" y="-371"/>
      <point x="244" y="-335" type="curve" smooth="yes"/>
      <point x="244" y="-289"/>
      <point x="282" y="-263"/>
      <point x="318" y="-263" type="curve" smooth="yes"/>
      <point x="348" y="-263"/>
      <point x="377" y="-282"/>
      <point x="377" y="-325" type="curve" smooth="yes"/>
      <point x="377" y="-384"/>
      <point x="325" y="-397"/>
      <point x="299" y="-397" type="curve"/>
      <point x="377" y="-429" type="line"/>
      <point x="478" y="-384"/>
      <point x="512" y="-329"/>
      <point x="512" y="-285" type="curve" smooth="yes"/>
      <point x="512" y="-210"/>
      <point x="445" y="-190"/>
      <point x="384" y="-190" type="curve" smooth="yes"/>
      <point x="221" y="-190"/>
      <point x="122" y="-294"/>
      <point x="122" y="-374" type="curve" smooth="yes"/>
      <point x="122" y="-419"/>
      <point x="162" y="-476"/>
      <point x="300" y="-476" type="curve" smooth="yes"/>
      <point x="796" y="-476"/>
      <point x="935" y="-14"/>
      <point x="935" y="396" type="curve" smooth="yes"/>
      <point x="935" y="557"/>
      <point x="816" y="795"/>
      <point x="849" y="845" type="curve"/>
      <point x="886" y="852"/>
      <point x="963" y="890"/>
      <point x="985" y="932" type="curve" smooth="yes"/>
      <point x="987" y="936"/>
      <point x="954" y="970"/>
      <point x="952" y="970" type="curve"/>
      <point x="896" y="950"/>
      <point x="841" y="913"/>
      <point x="787" y="854" type="curve" smooth="yes"/>
      <point x="667" y="722"/>
      <point x="777" y="595"/>
      <point x="794" y="402" type="curve" smooth="yes"/>
      <point x="817" y="149"/>
      <point x="613" y="96"/>
      <point x="494" y="96" type="curve" smooth="yes"/>
      <point x="339" y="96"/>
      <point x="269" y="175"/>
      <point x="268" y="258" type="curve" smooth="yes"/>
      <point x="267" y="382"/>
      <point x="382" y="443"/>
      <point x="435" y="476" type="curve"/>
      <point x="325" y="481" type="line"/>
      <point x="185" y="417"/>
      <point x="113" y="283"/>
      <point x="113" y="197" type="curve" smooth="yes"/>
      <point x="113" y="57"/>
      <point x="225" y="-34"/>
      <point x="432" y="-34" type="curve" smooth="yes"/>
      <point x="569" y="-34"/>
      <point x="709" y="27"/>
      <point x="805" y="133" type="curve"/>
    </contour>
    <contour>
      <point x="412" y="96" type="curve"/>
      <point x="287" y="-42"/>
      <point x="223" y="-104"/>
      <point x="129" y="-193" type="curve"/>
      <point x="162" y="-225" type="line"/>
      <point x="253" y="-156"/>
      <point x="291" y="-120"/>
      <point x="422" y="-10" type="curve"/>
      <point x="352" y="-13" type="line"/>
      <point x="413" y="-105"/>
      <point x="456" y="-164"/>
      <point x="559" y="-225" type="curve"/>
      <point x="593" y="-198"/>
      <point x="602" y="-172"/>
      <point x="614" y="-121" type="curve"/>
      <point x="550" y="-74"/>
      <point x="498" y="-22"/>
      <point x="454" y="77" type="curve"/>
      <point x="447" y="81"/>
      <point x="431" y="91"/>
    </contour>
  </outline>
</glyph>
<glyph name="dha_ukar-limb" format="2">
  <advance width="1020"/>
  <anchor x="530" y="1050" name="K"/>
  <outline>
    <contour>
      <point x="109" y="970" type="line"/>
      <point x="79" y="949"/>
      <point x="43" y="915"/>
      <point x="20" y="885" type="curve"/>
      <point x="49" y="845" type="line"/>
      <point x="622" y="845" type="line"/>
      <point x="671" y="870"/>
      <point x="695" y="894"/>
      <point x="731" y="930" type="curve"/>
      <point x="705" y="970" type="line"/>
    </contour>
    <contour>
      <point x="246" y="860" type="line"/>
      <point x="153" y="809"/>
      <point x="103" y="721"/>
      <point x="103" y="648" type="curve" smooth="yes"/>
      <point x="103" y="528"/>
      <point x="215" y="446"/>
      <point x="335" y="446" type="curve" smooth="yes"/>
      <point x="409" y="446"/>
      <point x="514" y="468"/>
      <point x="619" y="550" type="curve"/>
      <point x="587" y="590" type="line"/>
      <point x="524" y="580"/>
      <point x="483" y="576"/>
      <point x="430" y="576" type="curve" smooth="yes"/>
      <point x="341" y="576"/>
      <point x="242" y="620"/>
      <point x="244" y="707" type="curve" smooth="yes"/>
      <point x="245" y="761"/>
      <point x="277" y="807"/>
      <point x="377" y="865" type="curve"/>
    </contour>
    <contour>
      <point x="935" y="396" type="curve" smooth="yes"/>
      <point x="935" y="557"/>
      <point x="816" y="795"/>
      <point x="849" y="845" type="curve"/>
      <point x="886" y="852"/>
      <point x="963" y="890"/>
      <point x="985" y="932" type="curve" smooth="yes"/>
      <point x="987" y="936"/>
      <point x="954" y="970"/>
      <point x="952" y="970" type="curve"/>
      <point x="896" y="950"/>
      <point x="841" y="913"/>
      <point x="787" y="854" type="curve" smooth="yes"/>
      <point x="667" y="722"/>
      <point x="777" y="595"/>
      <point x="794" y="402" type="curve" smooth="yes"/>
      <point x="817" y="149"/>
      <point x="613" y="96"/>
      <point x="494" y="96" type="curve" smooth="yes"/>
      <point x="339" y="96"/>
      <point x="269" y="175"/>
      <point x="268" y="258" type="curve" smooth="yes"/>
      <point x="267" y="382"/>
      <point x="382" y="443"/>
      <point x="435" y="476" type="curve"/>
      <point x="325" y="481" type="line"/>
      <point x="185" y="417"/>
      <point x="113" y="283"/>
      <point x="113" y="197" type="curve" smooth="yes"/>
      <point x="113" y="57"/>
      <point x="225" y="-34"/>
      <point x="432" y="-34" type="curve" smooth="yes"/>
      <point x="569" y="-34"/>
      <point x="709" y="27"/>
      <point x="805" y="133" type="curve"/>
      <point x="779" y="161" type="line"/>
      <point x="784" y="-62"/>
      <point x="609" y="-370"/>
      <point x="394" y="-370" type="curve" smooth="yes"/>
      <point x="312" y="-370"/>
      <point x="246" y="-336"/>
      <point x="246" y="-279" type="curve" smooth="yes"/>
      <point x="246" y="-233"/>
      <point x="277" y="-203"/>
      <point x="312" y="-203" type="curve" smooth="yes"/>
      <point x="350" y="-203"/>
      <point x="376" y="-225"/>
      <point x="376" y="-266" type="curve" smooth="yes"/>
      <point x="376" y="-323"/>
      <point x="341" y="-343"/>
      <point x="309" y="-343" type="curve" smooth="yes"/>
      <point x="295" y="-343"/>
      <point x="280" y="-338"/>
      <point x="270" y="-332" type="curve"/>
      <point x="304" y="-373"/>
      <point x="311" y="-385"/>
      <point x="362" y="-400" type="curve"/>
      <point x="413" y="-371"/>
      <point x="511" y="-287"/>
      <point x="511" y="-226" type="curve" smooth="yes"/>
      <point x="511" y="-151"/>
      <point x="464" y="-111"/>
      <point x="403" y="-111" type="curve" smooth="yes"/>
      <point x="275" y="-111"/>
      <point x="121" y="-205"/>
      <point x="121" y="-355" type="curve" smooth="yes"/>
      <point x="121" y="-421"/>
      <point x="189" y="-477"/>
      <point x="329" y="-477" type="curve" smooth="yes"/>
      <point x="684" y="-477"/>
      <point x="935" y="-105"/>
    </contour>
  </outline>
</glyph>
<glyph name="gha_subra_ukar-limb" format="2">
  <advance width="940"/>
  <anchor x="500" y="1050" name="K"/>
  <outline>
    <contour>
      <point x="428" y="94" type="curve"/>
      <point x="303" y="-44"/>
      <point x="239" y="-106"/>
      <point x="145" y="-195" type="curve"/>
      <point x="178" y="-227" type="line"/>
      <point x="269" y="-158"/>
      <point x="307" y="-122"/>
      <point x="438" y="-12" type="curve"/>
      <point x="368" y="-15" type="line"/>
      <point x="429" y="-107"/>
      <point x="472" y="-166"/>
      <point x="575" y="-227" type="curve"/>
      <point x="609" y="-200"/>
      <point x="618" y="-174"/>
      <point x="630" y="-123" type="curve"/>
      <point x="566" y="-76"/>
      <point x="514" y="-24"/>
      <point x="470" y="75" type="curve"/>
      <point x="463" y="79"/>
      <point x="447" y="89"/>
    </contour>
    <contour>
      <point x="151" y="483" type="curve" smooth="yes"/>
      <point x="153" y="272"/>
      <point x="268" y="234"/>
      <point x="373" y="234" type="curve" smooth="yes"/>
      <point x="537" y="234"/>
      <point x="655" y="329"/>
      <point x="750" y="416" type="curve"/>
      <point x="729" y="526" type="line"/>
      <point x="683" y="449"/>
      <point x="555" y="344"/>
      <point x="449" y="344" type="curve" smooth="yes"/>
      <point x="336" y="344"/>
      <point x="291" y="396"/>
      <point x="290" y="533" type="curve"/>
      <point x="290" y="632"/>
      <point x="295" y="901"/>
      <point x="295" y="904" type="curve"/>
      <point x="158" y="904" type="line"/>
      <point x="155" y="900"/>
      <point x="149" y="624"/>
    </contour>
    <contour>
      <point x="860" y="67" type="curve"/>
      <point x="846" y="355"/>
      <point x="842" y="642"/>
      <point x="850" y="930" type="curve"/>
      <point x="825" y="970" type="line"/>
      <point x="89" y="970" type="line"/>
      <point x="60" y="949"/>
      <point x="23" y="915"/>
      <point x="0" y="885" type="curve"/>
      <point x="29" y="845" type="line"/>
      <point x="706" y="845" type="line"/>
      <point x="704" y="561"/>
      <point x="694" y="261"/>
      <point x="705" y="-3" type="curve" smooth="yes"/>
      <point x="714" y="-265"/>
      <point x="578" y="-409"/>
      <point x="399" y="-409" type="curve" smooth="yes"/>
      <point x="289" y="-409"/>
      <point x="260" y="-373"/>
      <point x="260" y="-337" type="curve" smooth="yes"/>
      <point x="260" y="-291"/>
      <point x="298" y="-265"/>
      <point x="334" y="-265" type="curve" smooth="yes"/>
      <point x="364" y="-265"/>
      <point x="393" y="-284"/>
      <point x="393" y="-327" type="curve" smooth="yes"/>
      <point x="393" y="-386"/>
      <point x="341" y="-399"/>
      <point x="315" y="-399" type="curve"/>
      <point x="393" y="-431" type="line"/>
      <point x="494" y="-386"/>
      <point x="528" y="-331"/>
      <point x="528" y="-287" type="curve" smooth="yes"/>
      <point x="528" y="-212"/>
      <point x="461" y="-192"/>
      <point x="400" y="-192" type="curve" smooth="yes"/>
      <point x="237" y="-192"/>
      <point x="138" y="-296"/>
      <point x="138" y="-376" type="curve" smooth="yes"/>
      <point x="138" y="-421"/>
      <point x="178" y="-478"/>
      <point x="316" y="-478" type="curve" smooth="yes"/>
      <point x="782" y="-478"/>
      <point x="859" y="-114"/>
    </contour>
  </outline>
</glyph>
<glyph name="kha_ukar-limb" format="2">
  <advance width="1103"/>
  <anchor x="680" y="1050" name="K"/>
  <outline>
    <contour>
      <point x="819" y="209" type="curve"/>
      <point x="787" y="255" type="line"/>
      <point x="684" y="174"/>
      <point x="629" y="96"/>
      <point x="496" y="96" type="curve" smooth="yes"/>
      <point x="372" y="96"/>
      <point x="200" y="212"/>
      <point x="200" y="468" type="curve" smooth="yes"/>
      <point x="200" y="782"/>
      <point x="389" y="912"/>
      <point x="611" y="956" type="curve"/>
      <point x="417" y="970" type="line"/>
      <point x="265" y="901"/>
      <point x="50" y="723"/>
      <point x="51" y="411" type="curve" smooth="yes"/>
      <point x="52" y="122"/>
      <point x="229" y="-34"/>
      <point x="421" y="-34" type="curve" smooth="yes"/>
      <point x="612" y="-34"/>
      <point x="675" y="58"/>
    </contour>
    <contour>
      <point x="948" y="845" type="line"/>
      <point x="955" y="875"/>
      <point x="971" y="912"/>
      <point x="1073" y="930" type="curve"/>
      <point x="1047" y="970" type="line"/>
      <point x="417" y="970" type="line"/>
      <point x="290" y="845" type="line"/>
    </contour>
    <contour>
      <point x="969" y="-16" type="curve"/>
      <point x="930" y="7" type="line"/>
      <point x="917" y="-164"/>
      <point x="811" y="-372"/>
      <point x="601" y="-372" type="curve" smooth="yes"/>
      <point x="519" y="-372"/>
      <point x="453" y="-338"/>
      <point x="453" y="-281" type="curve" smooth="yes"/>
      <point x="453" y="-235"/>
      <point x="484" y="-205"/>
      <point x="519" y="-205" type="curve" smooth="yes"/>
      <point x="557" y="-205"/>
      <point x="583" y="-227"/>
      <point x="583" y="-268" type="curve" smooth="yes"/>
      <point x="583" y="-325"/>
      <point x="548" y="-345"/>
      <point x="516" y="-345" type="curve" smooth="yes"/>
      <point x="502" y="-345"/>
      <point x="487" y="-340"/>
      <point x="477" y="-334" type="curve"/>
      <point x="511" y="-375"/>
      <point x="518" y="-384"/>
      <point x="569" y="-399" type="curve"/>
      <point x="620" y="-370"/>
      <point x="718" y="-289"/>
      <point x="718" y="-228" type="curve" smooth="yes"/>
      <point x="718" y="-153"/>
      <point x="671" y="-113"/>
      <point x="610" y="-113" type="curve" smooth="yes"/>
      <point x="482" y="-113"/>
      <point x="328" y="-207"/>
      <point x="328" y="-357" type="curve" smooth="yes"/>
      <point x="328" y="-423"/>
      <point x="396" y="-479"/>
      <point x="536" y="-479" type="curve" smooth="yes"/>
      <point x="891" y="-479"/>
      <point x="1055" y="-123"/>
      <point x="1093" y="130" type="curve"/>
      <point x="1066" y="166" type="line"/>
      <point x="1024" y="124"/>
      <point x="999" y="96"/>
      <point x="967" y="96" type="curve" smooth="yes"/>
      <point x="889" y="96"/>
      <point x="794" y="189"/>
      <point x="794" y="425" type="curve" smooth="yes"/>
      <point x="794" y="574"/>
      <point x="831" y="758"/>
      <point x="1073" y="930" type="curve"/>
      <point x="1015" y="929" type="line"/>
      <point x="778" y="838"/>
      <point x="644" y="588"/>
      <point x="644" y="363" type="curve" smooth="yes"/>
      <point x="644" y="87"/>
      <point x="751" y="-34"/>
      <point x="881" y="-34" type="curve" smooth="yes"/>
      <point x="920" y="-34"/>
      <point x="953" y="-21"/>
    </contour>
  </outline>
</glyph>
<glyph name="la_subra_ukar-limb" format="2">
  <advance width="1097"/>
  <anchor x="585" y="1050" name="K"/>
  <outline>
    <contour>
      <point x="1017" y="72" type="curve"/>
      <point x="1008" y="320"/>
      <point x="1000" y="616"/>
      <point x="1011" y="960" type="curve"/>
      <point x="986" y="1000" type="line"/>
      <point x="832" y="907"/>
      <point x="692" y="856"/>
      <point x="562" y="854" type="curve" smooth="yes"/>
      <point x="420" y="852"/>
      <point x="308" y="901"/>
      <point x="192" y="1000" type="curve"/>
      <point x="163" y="979"/>
      <point x="90" y="920"/>
      <point x="67" y="889" type="curve"/>
      <point x="56" y="838"/>
      <point x="50" y="781"/>
      <point x="50" y="750" type="curve" smooth="yes"/>
      <point x="50" y="406"/>
      <point x="304" y="360"/>
      <point x="442" y="360" type="curve" smooth="yes"/>
      <point x="577" y="360"/>
      <point x="701" y="432"/>
      <point x="799" y="540" type="curve"/>
      <point x="799" y="541"/>
      <point x="776" y="577"/>
      <point x="776" y="578" type="curve"/>
      <point x="731" y="548"/>
      <point x="610" y="490"/>
      <point x="512" y="490" type="curve" smooth="yes"/>
      <point x="312" y="490"/>
      <point x="158" y="615"/>
      <point x="183" y="844" type="curve"/>
      <point x="163" y="807" type="line"/>
      <point x="208" y="773"/>
      <point x="329" y="711"/>
      <point x="502" y="712" type="curve" smooth="yes"/>
      <point x="622" y="713"/>
      <point x="772" y="751"/>
      <point x="901" y="864" type="curve"/>
      <point x="864" y="875" type="line"/>
      <point x="862" y="578"/>
      <point x="851" y="274"/>
      <point x="864" y="-3" type="curve" smooth="yes"/>
      <point x="872" y="-265"/>
      <point x="734" y="-409"/>
      <point x="555" y="-409" type="curve" smooth="yes"/>
      <point x="445" y="-409"/>
      <point x="416" y="-373"/>
      <point x="416" y="-337" type="curve" smooth="yes"/>
      <point x="416" y="-291"/>
      <point x="454" y="-265"/>
      <point x="490" y="-265" type="curve" smooth="yes"/>
      <point x="520" y="-265"/>
      <point x="549" y="-284"/>
      <point x="549" y="-327" type="curve" smooth="yes"/>
      <point x="549" y="-386"/>
      <point x="497" y="-399"/>
      <point x="471" y="-399" type="curve"/>
      <point x="549" y="-431" type="line"/>
      <point x="650" y="-386"/>
      <point x="684" y="-331"/>
      <point x="684" y="-287" type="curve" smooth="yes"/>
      <point x="684" y="-212"/>
      <point x="617" y="-192"/>
      <point x="556" y="-192" type="curve" smooth="yes"/>
      <point x="393" y="-192"/>
      <point x="294" y="-296"/>
      <point x="294" y="-376" type="curve" smooth="yes"/>
      <point x="294" y="-421"/>
      <point x="334" y="-478"/>
      <point x="472" y="-478" type="curve" smooth="yes"/>
      <point x="938" y="-478"/>
      <point x="1016" y="-109"/>
    </contour>
    <contour>
      <point x="584" y="94" type="curve"/>
      <point x="459" y="-44"/>
      <point x="395" y="-106"/>
      <point x="301" y="-195" type="curve"/>
      <point x="334" y="-227" type="line"/>
      <point x="425" y="-158"/>
      <point x="463" y="-122"/>
      <point x="594" y="-12" type="curve"/>
      <point x="524" y="-15" type="line"/>
      <point x="585" y="-107"/>
      <point x="628" y="-166"/>
      <point x="731" y="-227" type="curve"/>
      <point x="765" y="-200"/>
      <point x="774" y="-174"/>
      <point x="786" y="-123" type="curve"/>
      <point x="722" y="-76"/>
      <point x="670" y="-24"/>
      <point x="626" y="75" type="curve"/>
      <point x="619" y="79"/>
      <point x="603" y="89"/>
    </contour>
  </outline>
</glyph>
<glyph name="la_ukar-limb" format="2">
  <advance width="1097"/>
  <anchor x="585" y="1050" name="K"/>
  <outline>
    <contour>
      <point x="1016" y="67" type="curve"/>
      <point x="1002" y="315"/>
      <point x="1000" y="616"/>
      <point x="1011" y="960" type="curve"/>
      <point x="986" y="1000" type="line"/>
      <point x="832" y="907"/>
      <point x="692" y="856"/>
      <point x="562" y="854" type="curve" smooth="yes"/>
      <point x="420" y="852"/>
      <point x="308" y="901"/>
      <point x="192" y="1000" type="curve"/>
      <point x="163" y="979"/>
      <point x="90" y="920"/>
      <point x="67" y="889" type="curve"/>
      <point x="56" y="838"/>
      <point x="50" y="781"/>
      <point x="50" y="750" type="curve" smooth="yes"/>
      <point x="50" y="406"/>
      <point x="304" y="360"/>
      <point x="442" y="360" type="curve" smooth="yes"/>
      <point x="577" y="360"/>
      <point x="701" y="432"/>
      <point x="799" y="540" type="curve"/>
      <point x="799" y="541"/>
      <point x="776" y="577"/>
      <point x="776" y="578" type="curve"/>
      <point x="731" y="548"/>
      <point x="610" y="490"/>
      <point x="512" y="490" type="curve" smooth="yes"/>
      <point x="312" y="490"/>
      <point x="158" y="615"/>
      <point x="183" y="844" type="curve"/>
      <point x="163" y="807" type="line"/>
      <point x="208" y="773"/>
      <point x="329" y="711"/>
      <point x="502" y="712" type="curve" smooth="yes"/>
      <point x="622" y="713"/>
      <point x="772" y="751"/>
      <point x="901" y="864" type="curve"/>
      <point x="864" y="875" type="line"/>
      <point x="862" y="578"/>
      <point x="851" y="274"/>
      <point x="864" y="-3" type="curve" smooth="yes"/>
      <point x="873" y="-208"/>
      <point x="773" y="-372"/>
      <point x="558" y="-372" type="curve" smooth="yes"/>
      <point x="476" y="-372"/>
      <point x="410" y="-338"/>
      <point x="410" y="-281" type="curve" smooth="yes"/>
      <point x="410" y="-235"/>
      <point x="441" y="-205"/>
      <point x="476" y="-205" type="curve" smooth="yes"/>
      <point x="514" y="-205"/>
      <point x="540" y="-227"/>
      <point x="540" y="-268" type="curve" smooth="yes"/>
      <point x="540" y="-325"/>
      <point x="505" y="-345"/>
      <point x="473" y="-345" type="curve" smooth="yes"/>
      <point x="459" y="-345"/>
      <point x="444" y="-340"/>
      <point x="434" y="-334" type="curve"/>
      <point x="468" y="-375"/>
      <point x="475" y="-387"/>
      <point x="526" y="-402" type="curve"/>
      <point x="577" y="-373"/>
      <point x="675" y="-289"/>
      <point x="675" y="-228" type="curve" smooth="yes"/>
      <point x="675" y="-153"/>
      <point x="628" y="-113"/>
      <point x="567" y="-113" type="curve" smooth="yes"/>
      <point x="439" y="-113"/>
      <point x="285" y="-207"/>
      <point x="285" y="-357" type="curve" smooth="yes"/>
      <point x="285" y="-423"/>
      <point x="353" y="-479"/>
      <point x="493" y="-479" type="curve" smooth="yes"/>
      <point x="848" y="-479"/>
      <point x="1015" y="-94"/>
    </contour>
  </outline>
</glyph>
<glyph name="ma_subra_ukar-limb" format="2">
  <advance width="1077"/>
  <anchor x="560" y="1050" name="K"/>
  <outline>
    <contour>
      <point x="840" y="30" type="line"/>
      <point x="860" y="-267"/>
      <point x="714" y="-409"/>
      <point x="535" y="-409" type="curve" smooth="yes"/>
      <point x="425" y="-409"/>
      <point x="396" y="-373"/>
      <point x="396" y="-337" type="curve" smooth="yes"/>
      <point x="396" y="-291"/>
      <point x="434" y="-265"/>
      <point x="470" y="-265" type="curve" smooth="yes"/>
      <point x="500" y="-265"/>
      <point x="529" y="-284"/>
      <point x="529" y="-327" type="curve" smooth="yes"/>
      <point x="529" y="-386"/>
      <point x="477" y="-399"/>
      <point x="451" y="-399" type="curve"/>
      <point x="529" y="-431" type="line"/>
      <point x="630" y="-386"/>
      <point x="664" y="-331"/>
      <point x="664" y="-287" type="curve" smooth="yes"/>
      <point x="664" y="-212"/>
      <point x="597" y="-192"/>
      <point x="536" y="-192" type="curve" smooth="yes"/>
      <point x="373" y="-192"/>
      <point x="274" y="-296"/>
      <point x="274" y="-376" type="curve" smooth="yes"/>
      <point x="274" y="-421"/>
      <point x="314" y="-478"/>
      <point x="452" y="-478" type="curve" smooth="yes"/>
      <point x="918" y="-478"/>
      <point x="992" y="-109"/>
      <point x="993" y="72" type="curve"/>
      <point x="979" y="320"/>
      <point x="975" y="587"/>
      <point x="986" y="930" type="curve"/>
      <point x="960" y="970" type="line"/>
      <point x="146" y="970" type="line"/>
      <point x="117" y="949"/>
      <point x="79" y="915"/>
      <point x="56" y="885" type="curve"/>
      <point x="86" y="845" type="line"/>
      <point x="842" y="845" type="line"/>
      <point x="837" y="534"/>
      <point x="831" y="312"/>
      <point x="845" y="146" type="curve"/>
      <point x="882" y="158" type="line"/>
      <point x="660" y="255"/>
      <point x="442" y="341"/>
      <point x="223" y="361" type="curve"/>
      <point x="246" y="332" type="line"/>
      <point x="327" y="478"/>
      <point x="531" y="699"/>
      <point x="724" y="856" type="curve"/>
      <point x="592" y="855" type="line"/>
      <point x="389" y="688"/>
      <point x="191" y="485"/>
      <point x="50" y="267" type="curve"/>
      <point x="76" y="237" type="line"/>
      <point x="243" y="238"/>
      <point x="608" y="132"/>
      <point x="849" y="-5" type="curve"/>
    </contour>
    <contour>
      <point x="564" y="94" type="curve"/>
      <point x="439" y="-44"/>
      <point x="375" y="-106"/>
      <point x="281" y="-195" type="curve"/>
      <point x="314" y="-227" type="line"/>
      <point x="405" y="-158"/>
      <point x="443" y="-122"/>
      <point x="574" y="-12" type="curve"/>
      <point x="504" y="-15" type="line"/>
      <point x="565" y="-107"/>
      <point x="608" y="-166"/>
      <point x="711" y="-227" type="curve"/>
      <point x="745" y="-200"/>
      <point x="754" y="-174"/>
      <point x="766" y="-123" type="curve"/>
      <point x="702" y="-76"/>
      <point x="650" y="-24"/>
      <point x="606" y="75" type="curve"/>
      <point x="599" y="79"/>
      <point x="583" y="89"/>
    </contour>
  </outline>
</glyph>
<glyph name="sa_subra_ukar-limb" format="2">
  <advance width="1081"/>
  <anchor x="600" y="1050" name="K"/>
  <outline>
    <contour>
      <point x="1000" y="72" type="curve"/>
      <point x="988" y="354"/>
      <point x="994" y="502"/>
      <point x="995" y="754" type="curve" smooth="yes"/>
      <point x="996" y="941"/>
      <point x="963" y="980"/>
      <point x="856" y="980" type="curve" smooth="yes"/>
      <point x="708" y="980"/>
      <point x="553" y="970"/>
      <point x="405" y="987" type="curve"/>
      <point x="374" y="951" type="line"/>
      <point x="415" y="861" type="line"/>
      <point x="554" y="847"/>
      <point x="672" y="857"/>
      <point x="767" y="854" type="curve" smooth="yes"/>
      <point x="831" y="852"/>
      <point x="853" y="808"/>
      <point x="850" y="636" type="curve"/>
      <point x="844" y="420"/>
      <point x="839" y="196"/>
      <point x="847" y="-3" type="curve" smooth="yes"/>
      <point x="855" y="-265"/>
      <point x="717" y="-409"/>
      <point x="538" y="-409" type="curve" smooth="yes"/>
      <point x="428" y="-409"/>
      <point x="399" y="-373"/>
      <point x="399" y="-337" type="curve" smooth="yes"/>
      <point x="399" y="-291"/>
      <point x="437" y="-265"/>
      <point x="473" y="-265" type="curve" smooth="yes"/>
      <point x="503" y="-265"/>
      <point x="532" y="-284"/>
      <point x="532" y="-327" type="curve" smooth="yes"/>
      <point x="532" y="-386"/>
      <point x="480" y="-399"/>
      <point x="454" y="-399" type="curve"/>
      <point x="532" y="-431" type="line"/>
      <point x="633" y="-386"/>
      <point x="667" y="-331"/>
      <point x="667" y="-287" type="curve" smooth="yes"/>
      <point x="667" y="-212"/>
      <point x="600" y="-192"/>
      <point x="539" y="-192" type="curve" smooth="yes"/>
      <point x="376" y="-192"/>
      <point x="277" y="-296"/>
      <point x="277" y="-376" type="curve" smooth="yes"/>
      <point x="277" y="-421"/>
      <point x="317" y="-478"/>
      <point x="455" y="-478" type="curve" smooth="yes"/>
      <point x="921" y="-478"/>
      <point x="999" y="-109"/>
    </contour>
    <contour>
      <point x="50" y="648" type="curve" smooth="yes"/>
      <point x="50" y="455"/>
      <point x="195" y="307"/>
      <point x="350" y="307" type="curve" smooth="yes"/>
      <point x="485" y="307"/>
      <point x="636" y="417"/>
      <point x="636" y="618" type="curve" smooth="yes"/>
      <point x="636" y="807"/>
      <point x="513" y="990"/>
      <point x="375" y="990" type="curve" smooth="yes"/>
      <point x="329" y="990"/>
      <point x="262" y="970"/>
      <point x="193" y="920" type="curve" smooth="yes"/>
      <point x="73" y="833"/>
      <point x="50" y="749"/>
    </contour>
    <contour>
      <point x="193" y="745" type="curve" smooth="yes"/>
      <point x="193" y="824"/>
      <point x="234" y="879"/>
      <point x="298" y="879" type="curve" smooth="yes"/>
      <point x="408" y="879"/>
      <point x="490" y="653"/>
      <point x="490" y="527" type="curve" smooth="yes"/>
      <point x="490" y="455"/>
      <point x="460" y="420"/>
      <point x="414" y="420" type="curve" smooth="yes"/>
      <point x="307" y="420"/>
      <point x="193" y="538"/>
    </contour>
    <contour>
      <point x="567" y="94" type="curve"/>
      <point x="442" y="-44"/>
      <point x="378" y="-106"/>
      <point x="284" y="-195" type="curve"/>
      <point x="317" y="-227" type="line"/>
      <point x="408" y="-158"/>
      <point x="446" y="-122"/>
      <point x="577" y="-12" type="curve"/>
      <point x="507" y="-15" type="line"/>
      <point x="568" y="-107"/>
      <point x="611" y="-166"/>
      <point x="714" y="-227" type="curve"/>
      <point x="748" y="-200"/>
      <point x="757" y="-174"/>
      <point x="769" y="-123" type="curve"/>
      <point x="705" y="-76"/>
      <point x="653" y="-24"/>
      <point x="609" y="75" type="curve"/>
      <point x="602" y="79"/>
      <point x="586" y="89"/>
    </contour>
  </outline>
</glyph>
<glyph name="sa_ukar-limb" format="2">
  <advance width="1081"/>
  <anchor x="600" y="1050" name="K"/>
  <outline>
    <contour>
      <point x="1000" y="67" type="curve"/>
      <point x="988" y="354"/>
      <point x="994" y="502"/>
      <point x="995" y="754" type="curve" smooth="yes"/>
      <point x="996" y="941"/>
      <point x="963" y="980"/>
      <point x="856" y="980" type="curve" smooth="yes"/>
      <point x="708" y="980"/>
      <point x="553" y="970"/>
      <point x="405" y="987" type="curve"/>
      <point x="374" y="951" type="line"/>
      <point x="415" y="861" type="line"/>
      <point x="554" y="847"/>
      <point x="672" y="857"/>
      <point x="767" y="854" type="curve" smooth="yes"/>
      <point x="831" y="852"/>
      <point x="853" y="808"/>
      <point x="850" y="636" type="curve"/>
      <point x="844" y="420"/>
      <point x="839" y="196"/>
      <point x="847" y="-3" type="curve" smooth="yes"/>
      <point x="856" y="-208"/>
      <point x="756" y="-372"/>
      <point x="541" y="-372" type="curve" smooth="yes"/>
      <point x="459" y="-372"/>
      <point x="393" y="-338"/>
      <point x="393" y="-281" type="curve" smooth="yes"/>
      <point x="393" y="-235"/>
      <point x="424" y="-205"/>
      <point x="459" y="-205" type="curve" smooth="yes"/>
      <point x="497" y="-205"/>
      <point x="523" y="-227"/>
      <point x="523" y="-268" type="curve" smooth="yes"/>
      <point x="523" y="-325"/>
      <point x="488" y="-345"/>
      <point x="456" y="-345" type="curve" smooth="yes"/>
      <point x="442" y="-345"/>
      <point x="427" y="-340"/>
      <point x="417" y="-334" type="curve"/>
      <point x="451" y="-375"/>
      <point x="458" y="-387"/>
      <point x="509" y="-402" type="curve"/>
      <point x="560" y="-373"/>
      <point x="658" y="-289"/>
      <point x="658" y="-228" type="curve" smooth="yes"/>
      <point x="658" y="-153"/>
      <point x="611" y="-113"/>
      <point x="550" y="-113" type="curve" smooth="yes"/>
      <point x="422" y="-113"/>
      <point x="268" y="-207"/>
      <point x="268" y="-357" type="curve" smooth="yes"/>
      <point x="268" y="-423"/>
      <point x="336" y="-479"/>
      <point x="476" y="-479" type="curve" smooth="yes"/>
      <point x="831" y="-479"/>
      <point x="999" y="-99"/>
    </contour>
    <contour>
      <point x="50" y="648" type="curve" smooth="yes"/>
      <point x="50" y="455"/>
      <point x="195" y="307"/>
      <point x="350" y="307" type="curve" smooth="yes"/>
      <point x="485" y="307"/>
      <point x="636" y="417"/>
      <point x="636" y="618" type="curve" smooth="yes"/>
      <point x="636" y="807"/>
      <point x="513" y="990"/>
      <point x="375" y="990" type="curve" smooth="yes"/>
      <point x="329" y="990"/>
      <point x="262" y="970"/>
      <point x="193" y="920" type="curve" smooth="yes"/>
      <point x="73" y="833"/>
      <point x="50" y="749"/>
    </contour>
    <contour>
      <point x="193" y="745" type="curve" smooth="yes"/>
      <point x="193" y="824"/>
      <point x="234" y="879"/>
      <point x="298" y="879" type="curve" smooth="yes"/>
      <point x="408" y="879"/>
      <point x="490" y="653"/>
      <point x="490" y="527" type="curve" smooth="yes"/>
      <point x="490" y="455"/>
      <point x="460" y="420"/>
      <point x="414" y="420" type="curve" smooth="yes"/>
      <point x="307" y="420"/>
      <point x="193" y="538"/>
    </contour>
  </outline>
</glyph>
<glyph name="ta_ukar-limb" format="2">
  <advance width="899"/>
  <anchor x="450" y="1050" name="K"/>
  <outline>
    <contour>
      <point x="525" y="593" type="curve"/>
      <point x="636" y="561" type="line"/>
      <point x="685" y="570"/>
      <point x="793" y="635"/>
      <point x="793" y="762" type="curve" smooth="yes"/>
      <point x="793" y="917"/>
      <point x="651" y="995"/>
      <point x="461" y="995" type="curve" smooth="yes"/>
      <point x="291" y="995"/>
      <point x="149" y="924"/>
      <point x="58" y="809" type="curve"/>
      <point x="91" y="779" type="line"/>
      <point x="176" y="860"/>
      <point x="285" y="888"/>
      <point x="400" y="887" type="curve" smooth="yes"/>
      <point x="556" y="886"/>
      <point x="636" y="822"/>
      <point x="634" y="738" type="curve"/>
      <point x="634" y="657"/>
      <point x="569" y="610"/>
    </contour>
    <contour>
      <point x="696" y="68" type="curve"/>
      <point x="678" y="93" type="line"/>
      <point x="664" y="-114"/>
      <point x="554" y="-370"/>
      <point x="367" y="-370" type="curve" smooth="yes"/>
      <point x="285" y="-370"/>
      <point x="219" y="-336"/>
      <point x="219" y="-279" type="curve" smooth="yes"/>
      <point x="219" y="-233"/>
      <point x="250" y="-203"/>
      <point x="285" y="-203" type="curve" smooth="yes"/>
      <point x="323" y="-203"/>
      <point x="349" y="-225"/>
      <point x="349" y="-266" type="curve" smooth="yes"/>
      <point x="349" y="-323"/>
      <point x="314" y="-343"/>
      <point x="282" y="-343" type="curve" smooth="yes"/>
      <point x="268" y="-343"/>
      <point x="253" y="-338"/>
      <point x="243" y="-332" type="curve"/>
      <point x="277" y="-373"/>
      <point x="284" y="-385"/>
      <point x="335" y="-400" type="curve"/>
      <point x="386" y="-371"/>
      <point x="484" y="-287"/>
      <point x="484" y="-226" type="curve" smooth="yes"/>
      <point x="484" y="-151"/>
      <point x="437" y="-111"/>
      <point x="376" y="-111" type="curve" smooth="yes"/>
      <point x="248" y="-111"/>
      <point x="94" y="-205"/>
      <point x="94" y="-355" type="curve" smooth="yes"/>
      <point x="94" y="-421"/>
      <point x="162" y="-477"/>
      <point x="302" y="-477" type="curve" smooth="yes"/>
      <point x="657" y="-477"/>
      <point x="840" y="14"/>
      <point x="839" y="324" type="curve" smooth="yes"/>
      <point x="839" y="465"/>
      <point x="758" y="598"/>
      <point x="515" y="598" type="curve"/>
      <point x="365" y="598"/>
      <point x="341" y="598"/>
      <point x="312" y="598" type="curve"/>
      <point x="279" y="578"/>
      <point x="236" y="539"/>
      <point x="216" y="511" type="curve"/>
      <point x="234" y="478" type="line"/>
      <point x="268" y="478"/>
      <point x="427" y="478"/>
      <point x="462" y="478" type="curve" smooth="yes"/>
      <point x="620" y="478"/>
      <point x="686" y="360"/>
      <point x="684" y="264" type="curve" smooth="yes"/>
      <point x="682" y="171"/>
      <point x="637" y="96"/>
      <point x="440" y="96" type="curve" smooth="yes"/>
      <point x="274" y="96"/>
      <point x="154" y="169"/>
      <point x="156" y="249" type="curve"/>
      <point x="150" y="254"/>
      <point x="119" y="264"/>
      <point x="115" y="264" type="curve"/>
      <point x="81" y="234"/>
      <point x="50" y="148"/>
      <point x="50" y="114" type="curve" smooth="yes"/>
      <point x="50" y="77"/>
      <point x="175" y="-34"/>
      <point x="407" y="-34" type="curve" smooth="yes"/>
      <point x="529" y="-34"/>
      <point x="625" y="9"/>
    </contour>
  </outline>
</glyph>
<glyph name="ukar-limb.altC" format="2">
  <anchor x="-100" y="50" name="_V"/>
  <outline>
    <contour>
      <point x="-664" y="-331" type="curve"/>
      <point x="-630" y="-372"/>
      <point x="-623" y="-384"/>
      <point x="-572" y="-399" type="curve"/>
      <point x="-521" y="-370"/>
      <point x="-423" y="-286"/>
      <point x="-423" y="-225" type="curve" smooth="yes"/>
      <point x="-423" y="-150"/>
      <point x="-470" y="-110"/>
      <point x="-531" y="-110" type="curve" smooth="yes"/>
      <point x="-659" y="-110"/>
      <point x="-813" y="-204"/>
      <point x="-813" y="-354" type="curve" smooth="yes"/>
      <point x="-813" y="-420"/>
      <point x="-745" y="-476"/>
      <point x="-605" y="-476" type="curve" smooth="yes"/>
      <point x="-216" y="-476"/>
      <point x="-67" y="-21"/>
      <point x="-30" y="300" type="curve"/>
      <point x="-36" y="306"/>
      <point x="-48" y="315"/>
      <point x="-57" y="321" type="curve"/>
      <point x="-72" y="274"/>
      <point x="-111" y="163"/>
      <point x="-187" y="126" type="curve"/>
      <point x="-216" y="-172"/>
      <point x="-335" y="-369"/>
      <point x="-540" y="-369" type="curve" smooth="yes"/>
      <point x="-622" y="-369"/>
      <point x="-688" y="-335"/>
      <point x="-688" y="-278" type="curve" smooth="yes"/>
      <point x="-688" y="-232"/>
      <point x="-657" y="-202"/>
      <point x="-622" y="-202" type="curve" smooth="yes"/>
      <point x="-584" y="-202"/>
      <point x="-558" y="-224"/>
      <point x="-558" y="-265" type="curve" smooth="yes"/>
      <point x="-558" y="-322"/>
      <point x="-593" y="-342"/>
      <point x="-625" y="-342" type="curve" smooth="yes"/>
      <point x="-639" y="-342"/>
      <point x="-654" y="-337"/>
    </contour>
  </outline>
</glyph>
<glyph name="ya_subra_ukar-limb" format="2">
  <advance width="944"/>
  <anchor x="480" y="1050" name="K"/>
  <outline>
    <contour>
      <point x="748" y="57" type="line"/>
      <point x="778" y="-251"/>
      <point x="613" y="-409"/>
      <point x="434" y="-409" type="curve" smooth="yes"/>
      <point x="324" y="-409"/>
      <point x="295" y="-373"/>
      <point x="295" y="-337" type="curve" smooth="yes"/>
      <point x="295" y="-291"/>
      <point x="333" y="-265"/>
      <point x="369" y="-265" type="curve" smooth="yes"/>
      <point x="399" y="-265"/>
      <point x="428" y="-284"/>
      <point x="428" y="-327" type="curve" smooth="yes"/>
      <point x="428" y="-386"/>
      <point x="376" y="-399"/>
      <point x="350" y="-399" type="curve"/>
      <point x="428" y="-431" type="line"/>
      <point x="529" y="-386"/>
      <point x="563" y="-331"/>
      <point x="563" y="-287" type="curve" smooth="yes"/>
      <point x="563" y="-212"/>
      <point x="496" y="-192"/>
      <point x="435" y="-192" type="curve" smooth="yes"/>
      <point x="272" y="-192"/>
      <point x="173" y="-296"/>
      <point x="173" y="-376" type="curve" smooth="yes"/>
      <point x="173" y="-421"/>
      <point x="213" y="-478"/>
      <point x="351" y="-478" type="curve" smooth="yes"/>
      <point x="807" y="-478"/>
      <point x="895" y="-109"/>
      <point x="900" y="85" type="curve"/>
      <point x="663" y="115"/>
      <point x="600" y="433"/>
      <point x="328" y="433" type="curve" smooth="yes"/>
      <point x="169" y="433"/>
      <point x="50" y="322"/>
      <point x="50" y="207" type="curve" smooth="yes"/>
      <point x="50" y="89"/>
      <point x="156" y="-34"/>
      <point x="385" y="-34" type="curve" smooth="yes"/>
      <point x="719" y="-34"/>
      <point x="874" y="303"/>
      <point x="874" y="427" type="curve" smooth="yes"/>
      <point x="874" y="585"/>
      <point x="754" y="695"/>
      <point x="621" y="694" type="curve"/>
      <point x="574" y="694"/>
      <point x="559" y="696"/>
      <point x="485" y="659" type="curve"/>
      <point x="517" y="654" type="line"/>
      <point x="610" y="762"/>
      <point x="702" y="830"/>
      <point x="824" y="930" type="curve"/>
      <point x="798" y="970" type="line"/>
      <point x="163" y="970" type="line"/>
      <point x="133" y="949"/>
      <point x="97" y="915"/>
      <point x="74" y="885" type="curve"/>
      <point x="104" y="845" type="line"/>
      <point x="658" y="845" type="line"/>
      <point x="629" y="875" type="line"/>
      <point x="516" y="770"/>
      <point x="423" y="687"/>
      <point x="328" y="577" type="curve"/>
      <point x="350" y="549" type="line"/>
      <point x="398" y="572"/>
      <point x="432" y="580"/>
      <point x="477" y="580" type="curve" smooth="yes"/>
      <point x="674" y="580"/>
      <point x="734" y="450"/>
      <point x="734" y="356" type="curve" smooth="yes"/>
      <point x="734" y="213"/>
      <point x="616" y="87"/>
      <point x="438" y="86" type="curve" smooth="yes"/>
      <point x="274" y="85"/>
      <point x="171" y="179"/>
      <point x="172" y="248" type="curve" smooth="yes"/>
      <point x="173" y="297"/>
      <point x="206" y="334"/>
      <point x="269" y="334" type="curve" smooth="yes"/>
      <point x="525" y="334"/>
      <point x="560" y="44"/>
      <point x="840" y="-28" type="curve"/>
    </contour>
    <contour>
      <point x="418" y="45" type="line"/>
      <point x="321" y="-60"/>
      <point x="262" y="-117"/>
      <point x="180" y="-195" type="curve"/>
      <point x="213" y="-227" type="line"/>
      <point x="304" y="-158"/>
      <point x="342" y="-122"/>
      <point x="473" y="-12" type="curve"/>
      <point x="403" y="-15" type="line"/>
      <point x="464" y="-107"/>
      <point x="507" y="-166"/>
      <point x="610" y="-227" type="curve"/>
      <point x="644" y="-200"/>
      <point x="653" y="-174"/>
      <point x="665" y="-123" type="curve"/>
      <point x="610" y="-83"/>
      <point x="564" y="-39"/>
      <point x="524" y="35" type="curve"/>
    </contour>
  </outline>
</glyph>
<glyph name="ya_ukar-limb" format="2">
  <advance width="944"/>
  <anchor x="480" y="1050" name="K"/>
  <outline>
    <contour>
      <point x="840" y="-34" type="curve"/>
      <point x="752" y="71" type="line"/>
      <point x="761" y="-208"/>
      <point x="630" y="-370"/>
      <point x="435" y="-370" type="curve" smooth="yes"/>
      <point x="353" y="-370"/>
      <point x="287" y="-336"/>
      <point x="287" y="-279" type="curve" smooth="yes"/>
      <point x="287" y="-233"/>
      <point x="318" y="-203"/>
      <point x="353" y="-203" type="curve" smooth="yes"/>
      <point x="391" y="-203"/>
      <point x="417" y="-225"/>
      <point x="417" y="-266" type="curve" smooth="yes"/>
      <point x="417" y="-323"/>
      <point x="382" y="-343"/>
      <point x="350" y="-343" type="curve" smooth="yes"/>
      <point x="336" y="-343"/>
      <point x="321" y="-338"/>
      <point x="311" y="-332" type="curve"/>
      <point x="345" y="-373"/>
      <point x="352" y="-385"/>
      <point x="403" y="-400" type="curve"/>
      <point x="454" y="-371"/>
      <point x="552" y="-287"/>
      <point x="552" y="-226" type="curve" smooth="yes"/>
      <point x="552" y="-151"/>
      <point x="505" y="-111"/>
      <point x="444" y="-111" type="curve" smooth="yes"/>
      <point x="316" y="-111"/>
      <point x="162" y="-205"/>
      <point x="162" y="-355" type="curve" smooth="yes"/>
      <point x="162" y="-421"/>
      <point x="230" y="-477"/>
      <point x="370" y="-477" type="curve" smooth="yes"/>
      <point x="725" y="-477"/>
      <point x="901" y="-92"/>
      <point x="900" y="85" type="curve"/>
      <point x="642" y="126"/>
      <point x="616" y="433"/>
      <point x="328" y="433" type="curve" smooth="yes"/>
      <point x="169" y="433"/>
      <point x="50" y="322"/>
      <point x="50" y="207" type="curve" smooth="yes"/>
      <point x="50" y="89"/>
      <point x="156" y="-34"/>
      <point x="385" y="-34" type="curve" smooth="yes"/>
      <point x="719" y="-34"/>
      <point x="874" y="303"/>
      <point x="874" y="427" type="curve" smooth="yes"/>
      <point x="874" y="585"/>
      <point x="754" y="695"/>
      <point x="621" y="694" type="curve"/>
      <point x="574" y="694"/>
      <point x="559" y="696"/>
      <point x="485" y="659" type="curve"/>
      <point x="517" y="654" type="line"/>
      <point x="610" y="762"/>
      <point x="702" y="830"/>
      <point x="824" y="930" type="curve"/>
      <point x="798" y="970" type="line"/>
      <point x="163" y="970" type="line"/>
      <point x="133" y="949"/>
      <point x="97" y="915"/>
      <point x="74" y="885" type="curve"/>
      <point x="104" y="845" type="line"/>
      <point x="658" y="845" type="line"/>
      <point x="629" y="875" type="line"/>
      <point x="516" y="770"/>
      <point x="423" y="687"/>
      <point x="328" y="577" type="curve"/>
      <point x="350" y="549" type="line"/>
      <point x="398" y="572"/>
      <point x="432" y="580"/>
      <point x="477" y="580" type="curve" smooth="yes"/>
      <point x="674" y="580"/>
      <point x="734" y="450"/>
      <point x="734" y="356" type="curve" smooth="yes"/>
      <point x="734" y="213"/>
      <point x="616" y="87"/>
      <point x="438" y="86" type="curve" smooth="yes"/>
      <point x="274" y="85"/>
      <point x="171" y="179"/>
      <point x="172" y="248" type="curve" smooth="yes"/>
      <point x="173" y="297"/>
      <point x="206" y="334"/>
      <point x="269" y="334" type="curve" smooth="yes"/>
      <point x="515" y="334"/>
      <point x="590" y="44"/>
    </contour>
  </outline>
</glyph>
<glyph name="yan_subra_ukar-limb" format="2">
  <advance width="1150"/>
  <anchor x="580" y="1050" name="K"/>
  <outline>
    <contour>
      <point x="139" y="970" type="line"/>
      <point x="109" y="949"/>
      <point x="73" y="915"/>
      <point x="50" y="885" type="curve"/>
      <point x="79" y="845" type="line"/>
      <point x="992" y="845" type="line"/>
      <point x="1041" y="870"/>
      <point x="1066" y="894"/>
      <point x="1100" y="930" type="curve"/>
      <point x="1075" y="970" type="line"/>
    </contour>
    <contour>
      <point x="1070" y="532" type="curve"/>
      <point x="1048" y="548"/>
      <point x="998" y="581"/>
      <point x="969" y="595" type="curve"/>
      <point x="917" y="402"/>
      <point x="800" y="151"/>
      <point x="666" y="0" type="curve"/>
      <point x="673" y="-13"/>
      <point x="713" y="-45"/>
      <point x="715" y="-44" type="curve"/>
      <point x="871" y="100"/>
      <point x="1003" y="353"/>
    </contour>
    <contour>
      <point x="944" y="97" type="line"/>
      <point x="960" y="-250"/>
      <point x="773" y="-409"/>
      <point x="594" y="-409" type="curve" smooth="yes"/>
      <point x="484" y="-409"/>
      <point x="455" y="-373"/>
      <point x="455" y="-337" type="curve" smooth="yes"/>
      <point x="455" y="-291"/>
      <point x="493" y="-265"/>
      <point x="529" y="-265" type="curve" smooth="yes"/>
      <point x="559" y="-265"/>
      <point x="588" y="-284"/>
      <point x="588" y="-327" type="curve" smooth="yes"/>
      <point x="588" y="-386"/>
      <point x="536" y="-399"/>
      <point x="510" y="-399" type="curve"/>
      <point x="588" y="-431" type="line"/>
      <point x="689" y="-386"/>
      <point x="723" y="-331"/>
      <point x="723" y="-287" type="curve" smooth="yes"/>
      <point x="723" y="-212"/>
      <point x="656" y="-192"/>
      <point x="595" y="-192" type="curve" smooth="yes"/>
      <point x="432" y="-192"/>
      <point x="333" y="-296"/>
      <point x="333" y="-376" type="curve" smooth="yes"/>
      <point x="333" y="-421"/>
      <point x="373" y="-478"/>
      <point x="511" y="-478" type="curve" smooth="yes"/>
      <point x="974" y="-478"/>
      <point x="1064" y="-153"/>
      <point x="1065" y="28" type="curve"/>
      <point x="855" y="455"/>
      <point x="668" y="655"/>
      <point x="459" y="655" type="curve" smooth="yes"/>
      <point x="292" y="655"/>
      <point x="60" y="501"/>
      <point x="60" y="255" type="curve" smooth="yes"/>
      <point x="60" y="83"/>
      <point x="196" y="-34"/>
      <point x="340" y="-34" type="curve" smooth="yes"/>
      <point x="490" y="-34"/>
      <point x="637" y="147"/>
      <point x="637" y="334" type="curve" smooth="yes"/>
      <point x="637" y="808"/>
      <point x="637" y="930"/>
      <point x="637" y="930" type="curve"/>
      <point x="493" y="865" type="line"/>
      <point x="493" y="865"/>
      <point x="493" y="349"/>
      <point x="493" y="264" type="curve" smooth="yes"/>
      <point x="493" y="138"/>
      <point x="477" y="98"/>
      <point x="383" y="96" type="curve" smooth="yes"/>
      <point x="304" y="94"/>
      <point x="195" y="171"/>
      <point x="196" y="312" type="curve" smooth="yes"/>
      <point x="197" y="454"/>
      <point x="284" y="524"/>
      <point x="391" y="524" type="curve" smooth="yes"/>
      <point x="626" y="524"/>
      <point x="771" y="355"/>
      <point x="977" y="11" type="curve"/>
    </contour>
    <contour>
      <point x="625" y="94" type="curve"/>
      <point x="500" y="-44"/>
      <point x="436" y="-106"/>
      <point x="342" y="-195" type="curve"/>
      <point x="375" y="-227" type="line"/>
      <point x="466" y="-158"/>
      <point x="504" y="-122"/>
      <point x="635" y="-12" type="curve"/>
      <point x="565" y="-15" type="line"/>
      <point x="626" y="-107"/>
      <point x="669" y="-166"/>
      <point x="772" y="-227" type="curve"/>
      <point x="806" y="-200"/>
      <point x="815" y="-174"/>
      <point x="827" y="-123" type="curve"/>
      <point x="763" y="-76"/>
      <point x="711" y="-24"/>
      <point x="667" y="75" type="curve"/>
      <point x="660" y="79"/>
      <point x="644" y="89"/>
    </contour>
  </outline>
</glyph>
<glyph name="yan_ukar-limb" format="2">
  <advance width="1150"/>
  <anchor x="580" y="1050" name="K"/>
  <outline>
    <contour>
      <point x="139" y="970" type="line"/>
      <point x="109" y="949"/>
      <point x="73" y="915"/>
      <point x="50" y="885" type="curve"/>
      <point x="79" y="845" type="line"/>
      <point x="992" y="845" type="line"/>
      <point x="1041" y="870"/>
      <point x="1066" y="894"/>
      <point x="1100" y="930" type="curve"/>
      <point x="1075" y="970" type="line"/>
    </contour>
    <contour>
      <point x="1070" y="532" type="curve"/>
      <point x="1048" y="548"/>
      <point x="998" y="581"/>
      <point x="969" y="595" type="curve"/>
      <point x="917" y="402"/>
      <point x="800" y="151"/>
      <point x="666" y="0" type="curve"/>
      <point x="673" y="-13"/>
      <point x="713" y="-45"/>
      <point x="715" y="-44" type="curve"/>
      <point x="871" y="100"/>
      <point x="1003" y="353"/>
    </contour>
    <contour>
      <point x="977" y="11" type="curve"/>
      <point x="944" y="81" type="line"/>
      <point x="956" y="-62"/>
      <point x="794" y="-370"/>
      <point x="569" y="-370" type="curve" smooth="yes"/>
      <point x="487" y="-370"/>
      <point x="421" y="-336"/>
      <point x="421" y="-279" type="curve" smooth="yes"/>
      <point x="421" y="-233"/>
      <point x="452" y="-203"/>
      <point x="487" y="-203" type="curve" smooth="yes"/>
      <point x="525" y="-203"/>
      <point x="551" y="-225"/>
      <point x="551" y="-266" type="curve" smooth="yes"/>
      <point x="551" y="-323"/>
      <point x="516" y="-343"/>
      <point x="484" y="-343" type="curve" smooth="yes"/>
      <point x="470" y="-343"/>
      <point x="455" y="-338"/>
      <point x="445" y="-332" type="curve"/>
      <point x="479" y="-373"/>
      <point x="486" y="-385"/>
      <point x="537" y="-400" type="curve"/>
      <point x="588" y="-371"/>
      <point x="686" y="-287"/>
      <point x="686" y="-226" type="curve" smooth="yes"/>
      <point x="686" y="-151"/>
      <point x="639" y="-111"/>
      <point x="578" y="-111" type="curve" smooth="yes"/>
      <point x="450" y="-111"/>
      <point x="296" y="-205"/>
      <point x="296" y="-355" type="curve" smooth="yes"/>
      <point x="296" y="-421"/>
      <point x="364" y="-477"/>
      <point x="504" y="-477" type="curve" smooth="yes"/>
      <point x="770" y="-477"/>
      <point x="977" y="-268"/>
      <point x="1065" y="28" type="curve"/>
      <point x="855" y="455"/>
      <point x="668" y="655"/>
      <point x="459" y="655" type="curve" smooth="yes"/>
      <point x="292" y="655"/>
      <point x="60" y="501"/>
      <point x="60" y="255" type="curve" smooth="yes"/>
      <point x="60" y="83"/>
      <point x="196" y="-34"/>
      <point x="340" y="-34" type="curve" smooth="yes"/>
      <point x="490" y="-34"/>
      <point x="637" y="147"/>
      <point x="637" y="334" type="curve" smooth="yes"/>
      <point x="637" y="808"/>
      <point x="637" y="930"/>
      <point x="637" y="930" type="curve"/>
      <point x="493" y="865" type="line"/>
      <point x="493" y="865"/>
      <point x="493" y="349"/>
      <point x="493" y="264" type="curve" smooth="yes"/>
      <point x="493" y="138"/>
      <point x="477" y="98"/>
      <point x="383" y="96" type="curve" smooth="yes"/>
      <point x="304" y="94"/>
      <point x="195" y="171"/>
      <point x="196" y="312" type="curve" smooth="yes"/>
      <point x="197" y="454"/>
      <point x="284" y="524"/>
      <point x="391" y="524" type="curve" smooth="yes"/>
      <point x="626" y="524"/>
      <point x="771" y="355"/>
    </contour>
  </outline>
</glyph>
